<svg width="52" height="52" viewBox="0 0 52 52" fill="none" xmlns="http://www.w3.org/2000/svg">
<mask id="mask0_11_2072" style="mask-type:luminance" maskUnits="userSpaceOnUse" x="0" y="0" width="52" height="52">
<path fill-rule="evenodd" clip-rule="evenodd" d="M28.7855 0C22.6314 0 17.6426 4.98883 17.6426 11.1429C17.6426 17.2969 22.6314 22.2857 28.7855 22.2857C34.9395 22.2857 39.9283 17.2969 39.9283 11.1429C39.9217 4.99158 34.9368 0.00665308 28.7855 0ZM21.3569 8.35714C21.3569 6.81864 22.6041 5.57143 24.1426 5.57143C25.6812 5.57143 26.9283 6.81864 26.9283 8.35714C26.9283 9.89565 25.6812 11.1429 24.1426 11.1429C22.6041 11.1429 21.3569 9.89565 21.3569 8.35714ZM28.7855 19.5C25.7098 19.497 23.2172 17.0044 23.2141 13.9286C23.2141 13.4157 23.6298 13 24.1426 13C24.6555 13 25.0712 13.4157 25.0712 13.9286C25.0712 15.98 26.7342 17.6429 28.7855 17.6429C30.8369 17.6429 32.4998 15.98 32.4998 13.9286C32.4998 13.4157 32.9156 13 33.4283 13C33.9411 13 34.3569 13.4157 34.3569 13.9286C34.3539 17.0044 31.8613 19.497 28.7855 19.5ZM33.4283 11.1429C31.8899 11.1429 30.6426 9.89565 30.6426 8.35714C30.6426 6.81864 31.8899 5.57143 33.4283 5.57143C34.9668 5.57143 36.2141 6.81864 36.2141 8.35714C36.2141 9.09597 35.9205 9.80452 35.3982 10.3269C34.8757 10.8494 34.1672 11.1429 33.4283 11.1429ZM25.0718 8.35714C25.0718 8.86998 24.6561 9.28572 24.1432 9.28572C23.6304 9.28572 23.2146 8.86998 23.2146 8.35714C23.2146 7.8443 23.6304 7.42857 24.1432 7.42857C24.6561 7.42857 25.0718 7.8443 25.0718 8.35714ZM37.1426 23.2141C37.1426 23.7268 36.7269 24.1425 36.2141 24.1425C35.7012 24.1425 35.2855 23.7268 35.2855 23.2141C35.2855 22.7012 35.7012 22.2855 36.2141 22.2855C36.7269 22.2855 37.1426 22.7012 37.1426 23.2141ZM34.3572 8.35714C34.3572 8.86998 33.9415 9.28572 33.4286 9.28572C32.9158 9.28572 32.5 8.86998 32.5 8.35714C32.5 7.84431 32.9158 7.42857 33.4286 7.42857C33.9415 7.42857 34.3572 7.84431 34.3572 8.35714ZM46.0909 14.1085C45.9636 13.4361 45.8188 12.7899 45.6469 12.1845C44.8212 9.36754 43.098 6.89737 40.7394 5.14963C40.5529 5.00381 40.3673 4.86417 40.1843 4.7265C40.1216 4.67933 40.0586 4.63193 39.9966 4.58505C41.5166 7.12252 42.097 10.1132 41.6364 13.0351C43.1733 13.1245 44.6818 13.4881 46.0909 14.1085ZM1.32228 31.7691C1.05506 31.6429 0.799087 31.4941 0.557143 31.3243C0.35815 31.1914 0.171667 31.0408 0 30.874C0 30.7356 0.150429 30.393 0.858001 29.5285C2.5211 27.3891 3.94707 25.0754 5.11086 22.6283C5.32905 22.2452 5.45197 21.8152 5.46928 21.3747C5.3742 20.4411 4.87939 19.5944 4.11264 19.0533L4.10948 19.0504C3.73552 18.707 3.38267 18.383 3.34192 18.0829C3.34907 17.8633 3.39791 17.6472 3.48586 17.4459C3.63722 17.0485 3.81178 16.6585 3.98728 16.2685C4.36835 15.4831 4.67278 14.6627 4.89636 13.8189L4.98922 13.4243C5.18512 12.4944 5.43785 11.5774 5.746 10.6785C6.47804 8.65789 7.61136 6.80631 9.07772 5.2352C10.855 3.35576 13.6547 2.02418 17.4014 1.28133C18.5956 1.03897 19.8974 0.790119 21.2429 0.57469C16.7544 3.76635 14.7697 9.44385 16.2923 14.7368C17.8148 20.0298 22.5129 23.7849 28.0112 24.1038C27.9144 24.7313 27.8629 25.365 27.8572 25.9999C27.8663 32.3817 32.5038 37.8145 38.805 38.8253C38.7382 39.8539 38.7652 40.8864 38.8857 41.9101C39.0996 43.8807 39.4905 45.828 40.0539 47.7285C40.3592 48.7267 40.7446 49.6988 41.2062 50.6349C41.4182 51.0557 41.6589 51.4612 41.9268 51.8486C41.9473 51.8783 41.9678 51.9089 41.9882 51.9414L20.9262 51.9999C20.3078 49.7968 19.1871 47.7671 17.6522 46.0701L18.5241 45.7655L18.9113 45.6314C19.3275 45.4871 19.6427 45.3778 19.8241 45.3188C23.803 44.0588 25.792 42.2481 25.7382 39.9332C25.7304 39.6014 25.5462 39.299 25.255 39.1399C24.9638 38.9808 24.6098 38.9891 24.3264 39.1617C24.043 39.3344 23.8732 39.6451 23.881 39.9768C23.9014 40.9323 23.1205 42.3261 19.2586 43.5462C19.0261 43.6228 18.5977 43.7722 18.0292 43.9703L18.0269 43.9711L17.914 44.0105C17.6391 44.1048 17.3338 44.2112 17.0043 44.326L17.003 44.3265L16.9999 44.3276C16.4971 44.5028 15.9381 44.6976 15.3447 44.8992C12.7315 45.8573 10.0652 46.6633 7.35894 47.3134C6.49437 47.4764 5.65388 46.9329 5.44792 46.0775C5.25006 45.5492 5.17543 44.9825 5.22972 44.4209C5.25364 44.2348 5.29449 44.0495 5.3353 43.8643L5.34114 43.8378C5.53001 43.1958 5.55744 42.517 5.421 41.8618C5.15065 41.0099 4.52387 40.3174 3.70314 39.9638C3.64362 39.9306 3.58489 39.8966 3.52621 39.8627L3.51 39.8533C3.61045 39.6504 3.73049 39.4579 3.86842 39.2785C4.0249 39.0815 4.09477 38.8295 4.06203 38.5801C4.0293 38.3306 3.89678 38.1052 3.69478 37.9553C3.47192 37.7909 2.94636 37.3972 2.56192 37.088C2.58657 37.0451 2.61148 36.9999 2.63624 36.9549C2.65812 36.9152 2.67987 36.8757 2.70122 36.8382C2.847 36.5819 3.01414 36.2848 3.17572 35.9412C3.47002 35.2905 3.5566 34.5648 3.42364 33.8631C3.20078 32.7293 2.11528 32.174 1.32228 31.7691ZM6.80178 13.8366L6.70892 14.2386L6.70986 14.2358C6.60654 14.7295 6.91625 15.2155 7.40743 15.3303C7.89862 15.445 8.39161 15.1467 8.51779 14.6583L8.61064 14.2526C8.77379 13.4778 8.98121 12.7129 9.23186 11.9618C9.79129 10.4116 10.6579 8.99035 11.7799 7.7832C12.9832 6.64791 14.4568 5.83892 16.0606 5.43298C16.5513 5.28323 16.8279 4.76397 16.6781 4.2732C16.5283 3.78241 16.0091 3.50594 15.5182 3.65568C13.6053 4.15344 11.8529 5.13554 10.4297 6.50734C9.13476 7.89781 8.13445 9.53585 7.48892 11.3229C7.21035 12.1464 6.9809 12.9858 6.80178 13.8366ZM7.42858 17.6428C7.42858 17.13 7.01284 16.7142 6.5 16.7142C5.98716 16.7142 5.57142 17.13 5.57142 17.6428C5.57142 18.1555 5.98716 18.5713 6.5 18.5713C7.01284 18.5713 7.42858 18.1555 7.42858 17.6428ZM45.5007 24.1425C46.0136 24.1425 46.4293 23.7268 46.4293 23.2141C46.4293 22.7012 46.0136 22.2855 45.5007 22.2855C44.9879 22.2855 44.5721 22.7012 44.5721 23.2141C44.5721 23.7268 44.9879 24.1425 45.5007 24.1425ZM37.5027 20.7591C39.2577 19.1738 40.5473 17.14 41.2327 14.8766V14.8728C47.3046 15.0804 52.0896 20.1162 51.9871 26.1907C51.8845 32.2654 46.9321 37.1367 40.8567 37.1391C40.5409 37.1391 40.2308 37.1177 39.9216 37.0917H39.9169H39.9067C36.7855 36.8522 33.9128 35.2985 32.0037 32.8176C30.0945 30.3367 29.3287 27.1618 29.8967 24.0833C31.1084 23.9795 32.2992 23.7043 33.4337 23.2662C33.4559 24.6233 34.4551 25.7659 35.7972 25.9687C37.1392 26.1715 38.4314 25.3752 38.8538 24.0854C39.276 22.7954 38.7048 21.3892 37.5027 20.7591ZM44.5709 33.4285C44.5709 33.9413 44.9867 34.3571 45.4995 34.3571C46.0124 34.3571 46.4281 33.9413 46.4281 33.4285C46.4281 30.3515 43.9337 27.8571 40.8567 27.8571C37.7796 27.8571 35.2852 30.3515 35.2852 33.4285C35.2852 33.9413 35.7009 34.3571 36.2138 34.3571C36.7266 34.3571 37.1423 33.9413 37.1423 33.4285C37.1423 31.3771 38.8053 29.7142 40.8567 29.7142C42.908 29.7142 44.5709 31.3771 44.5709 33.4285ZM42.7138 23.2142C42.7138 24.7527 43.961 25.9999 45.4995 25.9999C47.038 25.9999 48.2852 24.7527 48.2852 23.2142C48.2852 21.6757 47.038 20.4285 45.4995 20.4285C43.961 20.4285 42.7138 21.6757 42.7138 23.2142Z" fill="white"/>
</mask>
<g mask="url(#mask0_11_2072)">
<path d="M28.7855 -1.66893e-06L28.7865 -1H28.7855V-1.66893e-06ZM39.9283 11.1429H40.9283V11.1418L39.9283 11.1429ZM28.7855 19.5L28.7845 20.5H28.7864L28.7855 19.5ZM45.6469 12.1845L46.609 11.9114L46.6065 11.9032L45.6469 12.1845ZM46.0909 14.1085L45.6879 15.0237L47.4268 15.7893L47.0734 13.9225L46.0909 14.1085ZM40.7394 5.14963L40.1235 5.93747L40.1337 5.9454L40.1441 5.95308L40.7394 5.14963ZM40.1843 4.7265L40.7855 3.92742L40.7777 3.92154L40.7698 3.91582L40.1843 4.7265ZM40.1843 4.7265L39.5812 5.52414L39.5899 5.53072L39.5987 5.5371L40.1843 4.7265ZM40.1843 4.7265L40.787 3.92852L40.784 3.92624L40.1843 4.7265ZM40.1843 4.7265L39.5825 5.52513L39.5837 5.52603L40.1843 4.7265ZM39.9966 4.58505L40.5996 3.78732L39.1387 5.09892L39.9966 4.58505ZM41.6364 13.0351L40.6486 12.8794L40.4768 13.9693L41.5783 14.0334L41.6364 13.0351ZM0.55714 31.3243L1.13155 30.5057L1.12206 30.4991L1.11241 30.4926L0.55714 31.3243ZM1.32228 31.7691L1.77695 30.8785L1.76328 30.8715L1.7494 30.865L1.32228 31.7691ZM-2.80142e-06 30.874H-1V31.2966L-0.696849 31.5912L-2.80142e-06 30.874ZM0.857998 29.5285L1.63184 30.1618L1.6398 30.1521L1.64751 30.1422L0.857998 29.5285ZM5.11086 22.6283L4.24191 22.1334L4.22364 22.1655L4.20778 22.1988L5.11086 22.6283ZM5.46928 21.3747L6.46851 21.414L6.47128 21.3436L6.46414 21.2734L5.46928 21.3747ZM4.11264 19.0533L3.43647 19.7901L3.4837 19.8334L3.53608 19.8704L4.11264 19.0533ZM4.10948 19.0504L4.78565 18.3137L4.76066 18.2907L4.73417 18.2696L4.10948 19.0504ZM4.10948 19.0504L3.43307 19.7869L3.45816 19.81L3.48476 19.8313L4.10948 19.0504ZM3.34192 18.0829L2.34245 18.0503L2.33972 18.1342L2.35101 18.2174L3.34192 18.0829ZM3.48586 17.4459L4.40227 17.8461L4.41185 17.8242L4.42037 17.8018L3.48586 17.4459ZM3.98728 16.2685L3.0876 15.8319L3.08129 15.8449L3.07536 15.8581L3.98728 16.2685ZM4.89636 13.8189L5.86301 14.075L5.86657 14.0615L5.86976 14.048L4.89636 13.8189ZM4.98922 13.4243L5.96262 13.6534L5.96532 13.642L5.96774 13.6305L4.98922 13.4243ZM5.746 10.6785L4.8058 10.3378L4.80285 10.346L4.80004 10.3542L5.746 10.6785ZM9.07772 5.2352L8.35113 4.5481L8.34666 4.55288L9.07772 5.2352ZM17.4014 1.28133L17.5959 2.26225L17.6003 2.26135L17.4014 1.28133ZM21.2429 0.574688L21.8224 1.38966L21.0848 -0.412735L21.2429 0.574688ZM28.0112 24.1038L28.9995 24.2564L29.1673 23.1692L28.0691 23.1055L28.0112 24.1038ZM27.8572 25.9999L26.8572 25.9909V26.0013L27.8572 25.9999ZM38.805 38.8253L39.8029 38.8901L39.8619 37.982L38.9634 37.8379L38.805 38.8253ZM38.8857 41.9101L39.88 41.8022L39.8789 41.7931L38.8857 41.9101ZM40.0539 47.7285L39.0951 48.0127L39.0976 48.0209L40.0539 47.7285ZM41.2062 50.6349L40.3093 51.0772L40.3131 51.0846L41.2062 50.6349ZM41.9268 51.8486L42.7516 51.2831L42.7493 51.2798L41.9268 51.8486ZM41.9882 51.9414L41.991 52.9414L43.794 52.9364L42.835 51.4095L41.9882 51.9414ZM20.9262 51.9999L19.9634 52.2701L20.1689 53.002L20.929 52.9999L20.9262 51.9999ZM17.6522 46.0701L17.3224 45.126L15.8995 45.6231L16.9105 46.7409L17.6522 46.0701ZM18.5241 45.7655L18.1968 44.8205L18.1943 44.8214L18.5241 45.7655ZM19.8241 45.3188L19.5222 44.3654L19.5145 44.3679L19.8241 45.3188ZM23.881 39.9768L24.8808 39.9555L24.8807 39.9533L23.881 39.9768ZM19.2586 43.5462L18.9573 42.5926L18.9458 42.5964L19.2586 43.5462ZM17.914 44.0105L18.2386 44.9563L18.2432 44.9547L17.914 44.0105ZM17.0043 44.326L16.6753 43.3817L16.6728 43.3826L17.0043 44.326ZM17.003 44.3265L17.3324 45.2707L17.3345 45.2699L17.003 44.3265ZM15.3447 44.8992L15.023 43.9523L15.0117 43.9562L15.0005 43.9603L15.3447 44.8992ZM7.35894 47.3134L7.54423 48.2961L7.56851 48.2915L7.59253 48.2857L7.35894 47.3134ZM5.44792 46.0775L6.42014 45.8434L6.40584 45.784L6.3844 45.7268L5.44792 46.0775ZM5.22972 44.4209L4.23788 44.2934L4.23587 44.309L4.23436 44.3247L5.22972 44.4209ZM5.3353 43.8643L6.31186 44.0796L6.3122 44.078L5.3353 43.8643ZM5.3353 43.8643L4.35875 43.6491L4.35841 43.6506L5.3353 43.8643ZM5.34114 43.8378L4.38178 43.5556L4.37202 43.5888L4.36458 43.6226L5.34114 43.8378ZM5.421 41.8618L6.4 41.658L6.38959 41.608L6.37416 41.5593L5.421 41.8618ZM3.70314 39.9638L3.21588 40.8371L3.26052 40.862L3.30747 40.8822L3.70314 39.9638ZM3.51 39.8533L2.61379 39.4097L2.19793 40.2498L3.00945 40.719L3.51 39.8533ZM3.86842 39.2785L3.08546 38.6564L3.08051 38.6626L3.07565 38.669L3.86842 39.2785ZM3.69478 37.9553L4.29069 37.1523L4.28853 37.1507L3.69478 37.9553ZM2.56192 37.088L1.69508 36.5894L1.26856 37.3309L1.9351 37.8671L2.56192 37.088ZM2.70122 36.8382L3.56998 37.3335L3.5705 37.3326L2.70122 36.8382ZM3.17572 35.9412L4.08065 36.3668L4.08381 36.3601L4.08687 36.3533L3.17572 35.9412ZM3.42364 33.8631L4.40618 33.6769L4.40486 33.6702L3.42364 33.8631ZM6.70892 14.2386L5.73457 14.0136L7.65932 14.5497L6.70892 14.2386ZM6.80178 13.8366L7.77614 14.0616L7.77833 14.0521L7.78033 14.0426L6.80178 13.8366ZM6.70986 14.2358L7.68866 14.4406L5.75946 13.9247L6.70986 14.2358ZM8.51779 14.6583L9.486 14.9084L9.48948 14.8949L9.49258 14.8814L8.51779 14.6583ZM8.61064 14.2526L9.58544 14.4757L9.58739 14.4671L9.58918 14.4586L8.61064 14.2526ZM9.23186 11.9618L8.29124 11.6223L8.28712 11.6337L8.28329 11.6452L9.23186 11.9618ZM11.7799 7.7832L11.0936 7.05581L11.0697 7.07836L11.0474 7.10242L11.7799 7.7832ZM16.0606 5.43298L16.306 6.40241L16.3294 6.39649L16.3525 6.38944L16.0606 5.43298ZM15.5182 3.65568L15.7701 4.62346L15.7902 4.61823L15.81 4.61217L15.5182 3.65568ZM10.4297 6.50734L9.73572 5.78736L9.7163 5.80608L9.69793 5.82581L10.4297 6.50734ZM7.48892 11.3229L6.5484 10.9832L6.54493 10.9928L6.54165 11.0025L7.48892 11.3229ZM41.2327 14.8766L42.1898 15.1664L42.2327 15.0246V14.8766H41.2327ZM37.5027 20.7591L36.8324 20.017L35.7677 20.9787L37.0385 21.6448L37.5027 20.7591ZM41.2327 14.8728L41.2668 13.8734L40.2327 13.838V14.8728H41.2327ZM39.9216 37.0917L40.0054 36.0953L39.9636 36.0917H39.9216V37.0917ZM39.9067 37.0917L39.8301 38.0888L39.8683 38.0917H39.9067V37.0917ZM29.8967 24.0833L29.8114 23.0869L29.0516 23.152L28.9133 23.9019L29.8967 24.0833ZM33.4337 23.2662L34.4336 23.2499L34.4101 21.8172L33.0735 22.3334L33.4337 23.2662ZM18.6426 11.1429C18.6426 5.54111 23.1837 0.999998 28.7855 0.999998V-1C22.0791 -1 16.6426 4.43655 16.6426 11.1429H18.6426ZM28.7855 21.2857C23.1837 21.2857 18.6426 16.7446 18.6426 11.1429H16.6426C16.6426 17.8491 22.0791 23.2857 28.7855 23.2857V21.2857ZM38.9283 11.1429C38.9283 16.7446 34.3872 21.2857 28.7855 21.2857V23.2857C35.4918 23.2857 40.9283 17.8491 40.9283 11.1429H38.9283ZM28.7844 0.999998C34.3843 1.00605 38.9223 5.5431 38.9283 11.1429L40.9283 11.1418C40.9211 4.43907 35.4893 -0.992752 28.7865 -1L28.7844 0.999998ZM24.1426 4.57143C22.0518 4.57143 20.3569 6.26634 20.3569 8.35714H22.3569C22.3569 7.37095 23.1564 6.57143 24.1426 6.57143V4.57143ZM27.9283 8.35714C27.9283 6.2664 26.2335 4.57143 24.1426 4.57143V6.57143C25.1289 6.57143 25.9283 7.37088 25.9283 8.35714H27.9283ZM24.1426 12.1429C26.2335 12.1429 27.9283 10.4479 27.9283 8.35714H25.9283C25.9283 9.34341 25.1289 10.1429 24.1426 10.1429V12.1429ZM20.3569 8.35714C20.3569 10.4479 22.0518 12.1429 24.1426 12.1429V10.1429C23.1564 10.1429 22.3569 9.34335 22.3569 8.35714H20.3569ZM22.2141 13.9286C22.2177 17.5558 25.1573 20.4964 28.7845 20.5L28.7864 18.5C26.2623 18.4975 24.2166 16.4519 24.2141 13.9275L22.2141 13.9286ZM24.1426 12C23.0775 12 22.2141 12.8634 22.2141 13.9286H24.2141C24.2141 13.968 24.1821 14 24.1426 14V12ZM26.0712 13.9286C26.0712 12.8634 25.2078 12 24.1426 12V14C24.1032 14 24.0712 13.968 24.0712 13.9286H26.0712ZM28.7855 16.6429C27.2865 16.6429 26.0712 15.4277 26.0712 13.9286H24.0712C24.0712 16.5322 26.1819 18.6429 28.7855 18.6429V16.6429ZM31.4998 13.9286C31.4998 15.4277 30.2846 16.6429 28.7855 16.6429V18.6429C31.3892 18.6429 33.4998 16.5322 33.4998 13.9286H31.4998ZM33.4283 12C32.3632 12 31.4998 12.8635 31.4998 13.9286H33.4998C33.4998 13.9679 33.4679 14 33.4283 14V12ZM35.3569 13.9295C35.3569 12.8643 34.4934 12 33.4283 12V14C33.3889 14 33.3569 13.968 33.3569 13.9286L35.3569 13.9295ZM28.7864 20.5C32.4138 20.4964 35.3534 17.5569 35.3569 13.9295L33.3569 13.9286C33.3544 16.4529 31.3088 18.4975 28.7845 18.5L28.7864 20.5ZM29.6426 8.35714C29.6426 10.4479 31.3376 12.1429 33.4283 12.1429V10.1429C32.4422 10.1429 31.6426 9.34338 31.6426 8.35714H29.6426ZM33.4283 4.57143C31.3376 4.57143 29.6426 6.26637 29.6426 8.35714H31.6426C31.6426 7.37091 32.4422 6.57143 33.4283 6.57143V4.57143ZM37.2141 8.35714C37.2141 6.26634 35.5191 4.57143 33.4283 4.57143V6.57143C34.4146 6.57143 35.2141 7.37094 35.2141 8.35714H37.2141ZM36.1053 11.0341C36.8151 10.3242 37.2141 9.36122 37.2141 8.35714H35.2141C35.2141 8.83072 35.0259 9.28496 34.691 9.61989L36.1053 11.0341ZM33.4283 12.1429C34.4324 12.1429 35.3953 11.744 36.1053 11.0341L34.691 9.61989C34.3561 9.95481 33.902 10.1429 33.4283 10.1429V12.1429ZM24.1432 10.2857C25.2083 10.2857 26.0718 9.42227 26.0718 8.35714H24.0718C24.0718 8.31768 24.1038 8.28572 24.1432 8.28572V10.2857ZM22.2146 8.35714C22.2146 9.42227 23.0781 10.2857 24.1432 10.2857V8.28572C24.1827 8.28572 24.2146 8.31768 24.2146 8.35714H22.2146ZM24.1432 6.42857C23.0781 6.42857 22.2146 7.29199 22.2146 8.35714H24.2146C24.2146 8.39661 24.1826 8.42857 24.1432 8.42857V6.42857ZM26.0718 8.35714C26.0718 7.29199 25.2083 6.42857 24.1432 6.42857V8.42857C24.1038 8.42857 24.0718 8.39661 24.0718 8.35714H26.0718ZM36.2141 25.1425C37.2793 25.1425 38.1426 24.279 38.1426 23.2141H36.1426C36.1426 23.1746 36.1746 23.1425 36.2141 23.1425V25.1425ZM34.2855 23.2141C34.2855 24.2792 35.149 25.1425 36.2141 25.1425V23.1425C36.2534 23.1425 36.2855 23.1744 36.2855 23.2141H34.2855ZM36.2141 21.2855C35.149 21.2855 34.2855 22.1489 34.2855 23.2141H36.2855C36.2855 23.2535 36.2535 23.2855 36.2141 23.2855V21.2855ZM38.1426 23.2141C38.1426 22.1491 37.2794 21.2855 36.2141 21.2855V23.2855C36.1745 23.2855 36.1426 23.2533 36.1426 23.2141H38.1426ZM33.4286 10.2857C34.4937 10.2857 35.3572 9.42227 35.3572 8.35714H33.3572C33.3572 8.31768 33.3892 8.28572 33.4286 8.28572V10.2857ZM31.5 8.35714C31.5 9.42227 32.3635 10.2857 33.4286 10.2857V8.28572C33.468 8.28572 33.5 8.31768 33.5 8.35714H31.5ZM33.4286 6.42857C32.3635 6.42857 31.5 7.29201 31.5 8.35714H33.5C33.5 8.39662 33.468 8.42857 33.4286 8.42857V6.42857ZM35.3572 8.35714C35.3572 7.29201 34.4937 6.42857 33.4286 6.42857V8.42857C33.3892 8.42857 33.3572 8.39662 33.3572 8.35714H35.3572ZM44.6849 12.4576C44.8464 13.0264 44.9848 13.6421 45.1083 14.2945L47.0734 13.9225C46.9424 13.2302 46.7913 12.5534 46.609 11.9114L44.6849 12.4576ZM40.1441 5.95308C42.3276 7.5711 43.9228 9.85793 44.6873 12.4658L46.6065 11.9032C45.7195 8.87716 43.8684 6.22364 41.3348 4.34617L40.1441 5.95308ZM39.5837 5.52603C39.7678 5.66453 39.9455 5.79825 40.1235 5.93747L41.3553 4.36179C41.1603 4.20937 40.9674 4.06426 40.7855 3.92742L39.5837 5.52603ZM39.3936 5.38278C39.4567 5.43045 39.52 5.47808 39.5825 5.52513L40.7855 3.92742C40.7226 3.88014 40.6606 3.8334 40.5996 3.78732L39.3936 5.38278ZM42.6242 13.1908C43.1213 10.0374 42.4949 6.8097 40.8545 4.07118L39.1387 5.09892C40.5383 7.43534 41.0727 10.1891 40.6486 12.8794L42.6242 13.1908ZM46.4938 13.1933C44.9757 12.5249 43.3504 12.1332 41.6945 12.0368L41.5783 14.0334C42.9961 14.1159 44.3879 14.4514 45.6879 15.0237L46.4938 13.1933ZM-0.0172707 32.1429C0.271182 32.3453 0.576425 32.5228 0.895155 32.6733L1.7494 30.865C1.53369 30.7631 1.32699 30.6429 1.13155 30.5057L-0.0172707 32.1429ZM-0.696849 31.5912C-0.481452 31.8005 -0.247562 31.9894 0.00186527 32.156L1.11241 30.4926C0.963856 30.3934 0.824779 30.281 0.696844 30.1567L-0.696849 31.5912ZM0.0841519 28.8951C-0.284019 29.3449 -0.532902 29.6896 -0.694838 29.9607C-0.830205 30.1873 -1 30.5115 -1 30.874H0.999997C0.999997 30.9457 0.99045 31.0005 0.983206 31.0325C0.975848 31.065 0.968559 31.0842 0.967298 31.0875C0.965663 31.0917 0.977343 31.0614 1.02215 30.9864C1.11233 30.8354 1.29244 30.5765 1.63184 30.1618L0.0841519 28.8951ZM4.20778 22.1988C3.07507 24.5806 1.68718 26.8325 0.0684876 28.9147L1.64751 30.1422C3.35502 27.9457 4.81907 25.5703 6.01394 23.0578L4.20778 22.1988ZM4.47005 21.3355C4.45903 21.6158 4.38077 21.8896 4.24191 22.1334L5.97981 23.1232C6.27733 22.6008 6.4449 22.0145 6.46851 21.414L4.47005 21.3355ZM3.53608 19.8704C4.0664 20.2446 4.40866 20.8302 4.47443 21.4761L6.46414 21.2734C6.33974 20.0519 5.69239 18.9442 4.6892 18.2363L3.53608 19.8704ZM3.43307 19.7869L3.43647 19.7901L4.78881 18.3166L4.78565 18.3137L3.43307 19.7869ZM2.35101 18.2174C2.41255 18.6706 2.67865 19.0135 2.84534 19.2057C3.03008 19.4186 3.25782 19.626 3.43307 19.7869L4.78565 18.3137C4.58693 18.1312 4.45148 18.005 4.35612 17.8951C4.33506 17.8708 4.31981 17.8516 4.30911 17.8371C4.30386 17.83 4.30011 17.8245 4.29759 17.8207C4.29507 17.8169 4.29405 17.8151 4.29416 17.8153C4.29427 17.8155 4.29578 17.8181 4.29819 17.8232C4.3006 17.8282 4.30413 17.8361 4.30813 17.8468C4.31604 17.868 4.3266 17.9024 4.33283 17.9483L2.35101 18.2174ZM2.56944 17.0456C2.4308 17.3631 2.35373 17.7039 2.34245 18.0503L4.34139 18.1154C4.34441 18.0227 4.36502 17.9314 4.40227 17.8461L2.56944 17.0456ZM3.07536 15.8581C2.90111 16.2453 2.71471 16.661 2.55134 17.09L4.42037 17.8018C4.55972 17.4359 4.72245 17.0716 4.8992 16.6788L3.07536 15.8581ZM3.92971 13.5628C3.7226 14.3445 3.44058 15.1045 3.0876 15.8319L4.88696 16.705C5.29612 15.8618 5.62297 14.9809 5.86301 14.075L3.92971 13.5628ZM4.01581 13.1952L3.92296 13.5898L5.86976 14.048L5.96262 13.6534L4.01581 13.1952ZM4.80004 10.3542C4.47863 11.2918 4.21502 12.2483 4.01069 13.2182L5.96774 13.6305C6.15521 12.7405 6.39707 11.863 6.69196 11.0027L4.80004 10.3542ZM8.34666 4.55288C6.78825 6.22262 5.5838 8.19043 4.8058 10.3378L6.6862 11.0191C7.37229 9.12536 8.43446 7.39001 9.80878 5.91751L8.34666 4.55288ZM17.2069 0.300425C13.3483 1.06547 10.324 2.46187 8.35113 4.5481L9.8043 5.92228C11.386 4.24964 13.9611 2.9829 17.5959 2.26225L17.2069 0.300425ZM21.0848 -0.412735C19.7207 -0.194329 18.4042 0.0574249 17.2025 0.30131L17.6003 2.26135C18.787 2.02052 20.0741 1.77456 21.401 1.56211L21.0848 -0.412735ZM17.2533 14.4604C15.8481 9.57531 17.6798 4.33536 21.8224 1.38966L20.6634 -0.240281C15.829 3.19735 13.6913 9.31238 15.3312 15.0132L17.2533 14.4604ZM28.0691 23.1055C22.9945 22.8112 18.6585 19.3454 17.2533 14.4604L15.3312 15.0132C16.9711 20.7141 22.0313 24.7587 27.9533 25.1021L28.0691 23.1055ZM28.8572 26.0089C28.8624 25.422 28.91 24.8364 28.9995 24.2564L27.0229 23.9513C26.9188 24.6263 26.8634 25.3079 26.8572 25.9909L28.8572 26.0089ZM38.9634 37.8379C33.1466 36.9049 28.8656 31.8897 28.8572 25.9984L26.8572 26.0013C26.867 32.8737 31.861 38.7242 38.6466 39.8127L38.9634 37.8379ZM39.8789 41.7931C39.7655 40.8298 39.74 39.8581 39.8029 38.8901L37.8071 38.7605C37.7364 39.8496 37.765 40.9431 37.8926 42.027L39.8789 41.7931ZM41.0127 47.4442C40.4663 45.6014 40.0874 43.7132 39.88 41.8022L37.8916 42.0179C38.1119 44.0483 38.5146 46.0546 39.0951 48.0127L41.0127 47.4442ZM42.1031 50.1926C41.6653 49.3047 41.2997 48.3828 41.0102 47.4361L39.0976 48.0209C39.4186 49.0707 39.8239 50.0928 40.3093 51.0772L42.1031 50.1926ZM42.7493 51.2798C42.5076 50.9303 42.2905 50.5646 42.0994 50.1851L40.3131 51.0846C40.5458 51.5468 40.8102 51.992 41.1044 52.4174L42.7493 51.2798ZM42.835 51.4095C42.8043 51.3606 42.7752 51.3175 42.7516 51.2831L41.102 52.414C41.1193 52.4392 41.1313 52.4572 41.1414 52.4732L42.835 51.4095ZM20.929 52.9999L41.991 52.9414L41.9854 50.9414L20.9235 50.9999L20.929 52.9999ZM16.9105 46.7409C18.3418 48.3233 19.3868 50.2159 19.9634 52.2701L21.889 51.7296C21.2288 49.3777 20.0324 47.2109 18.3938 45.3993L16.9105 46.7409ZM18.1943 44.8214L17.3224 45.126L17.982 47.0141L18.8539 46.7095L18.1943 44.8214ZM18.584 44.6864L18.1968 44.8205L18.8514 46.7104L19.2386 46.5763L18.584 44.6864ZM19.5145 44.3679C19.3217 44.4307 18.9948 44.544 18.584 44.6864L19.2386 46.5763C19.6602 46.4302 19.9638 46.325 20.1337 46.2697L19.5145 44.3679ZM24.7385 39.9564C24.7575 40.7773 24.4314 41.5435 23.6201 42.2822C22.7821 43.0453 21.4428 43.7572 19.5222 44.3654L20.126 46.2721C22.1844 45.6203 23.829 44.7969 24.9667 43.761C26.1312 42.7006 26.7727 41.4039 26.7379 39.9099L24.7385 39.9564ZM24.7755 40.0174C24.7532 40.0053 24.7391 39.9818 24.7385 39.9564L26.7379 39.9099C26.7217 39.221 26.3392 38.5928 25.7345 38.2624L24.7755 40.0174ZM24.8466 40.0157C24.8249 40.029 24.7978 40.0296 24.7755 40.0174L25.7345 38.2624C25.1298 37.9319 24.3947 37.9492 23.8061 38.3077L24.8466 40.0157ZM24.8807 39.9533C24.8813 39.9787 24.8683 40.0025 24.8466 40.0157L23.8061 38.3077C23.2177 38.6662 22.8651 39.3114 22.8813 40.0003L24.8807 39.9533ZM19.5599 44.4998C21.5595 43.868 22.8752 43.1583 23.7021 42.3988C24.5582 41.6124 24.898 40.7601 24.8808 39.9555L22.8812 39.9982C22.8845 40.1491 22.844 40.4714 22.3492 40.9258C21.8253 41.407 20.8196 42.0042 18.9573 42.5926L19.5599 44.4998ZM18.3584 44.9146C18.932 44.7146 19.3495 44.5692 19.5714 44.4961L18.9458 42.5964C18.7028 42.6764 18.2633 42.8297 17.7 43.0261L18.3584 44.9146ZM18.3561 44.9154L18.3584 44.9146L17.7 43.0261L17.6973 43.027L18.3561 44.9154ZM18.2432 44.9547L18.3561 44.9154L17.6973 43.027L17.5848 43.0662L18.2432 44.9547ZM17.3334 45.2703C17.6635 45.1553 17.9663 45.0498 18.2386 44.9563L17.5894 43.0646C17.3118 43.1599 17.0041 43.2671 16.6753 43.3817L17.3334 45.2703ZM17.3345 45.2699L17.3359 45.2694L16.6728 43.3826L16.6714 43.3831L17.3345 45.2699ZM17.329 45.2719L17.3324 45.2707L16.6728 43.3826L16.6704 43.3834L17.329 45.2719ZM15.6663 45.846C16.264 45.643 16.8265 45.447 17.329 45.2719L16.6714 43.3831C16.1682 43.5584 15.6122 43.7521 15.023 43.9523L15.6663 45.846ZM7.59253 48.2857C10.3362 47.6266 13.0395 46.8094 15.6889 45.838L15.0005 43.9603C12.4235 44.9051 9.79411 45.6999 7.12535 46.341L7.59253 48.2857ZM4.47571 46.3116C4.80641 47.6851 6.15602 48.5578 7.54423 48.2961L7.17364 46.3307C6.83272 46.395 6.50135 46.1807 6.42014 45.8434L4.47571 46.3116ZM4.23436 44.3247C4.16543 45.0378 4.26018 45.7573 4.51144 46.4282L6.3844 45.7268C6.23994 45.341 6.18543 44.9272 6.22508 44.5171L4.23436 44.3247ZM4.35875 43.6491C4.31962 43.8266 4.26845 44.0555 4.23788 44.2934L6.22156 44.5484C6.23883 44.414 6.26935 44.2724 6.31186 44.0796L4.35875 43.6491ZM4.36458 43.6226L4.35875 43.6491L6.31186 44.0796L6.31771 44.0531L4.36458 43.6226ZM4.442 42.0657C4.54488 42.5597 4.52419 43.0715 4.38178 43.5556L6.3005 44.12C6.53582 43.32 6.57 42.4743 6.4 41.658L4.442 42.0657ZM3.30747 40.8822C3.86182 41.1211 4.28521 41.5888 4.46785 42.1643L6.37416 41.5593C6.01609 40.4311 5.18593 39.5138 4.09882 39.0454L3.30747 40.8822ZM3.02549 40.7283C3.08309 40.7616 3.14849 40.7995 3.21588 40.8371L4.19041 39.0906C4.13876 39.0618 4.08668 39.0317 4.02693 38.9971L3.02549 40.7283ZM3.00945 40.719L3.02549 40.7283L4.02693 38.9971L4.01055 38.9876L3.00945 40.719ZM3.07565 38.669C2.89788 38.9002 2.7432 39.1483 2.61379 39.4097L4.40621 40.297C4.4777 40.1525 4.56311 40.0156 4.66119 39.888L3.07565 38.669ZM3.07053 38.7102C3.068 38.6909 3.07339 38.6716 3.08546 38.6564L4.65138 39.9005C4.97641 39.4914 5.12153 38.9679 5.05352 38.4499L3.07053 38.7102ZM3.09887 38.7584C3.08326 38.7468 3.07304 38.7294 3.07053 38.7102L5.05352 38.4499C4.98554 37.9318 4.71029 37.4636 4.29069 37.1523L3.09887 38.7584ZM1.9351 37.8671C2.33608 38.1897 2.87502 38.5932 3.10103 38.76L4.28853 37.1507C4.06883 36.9886 3.55664 36.6048 3.18874 36.3088L1.9351 37.8671ZM1.76028 36.4725C1.73464 36.519 1.71427 36.556 1.69508 36.5894L3.42876 37.5866C3.45887 37.5342 3.48834 37.4806 3.51221 37.4373L1.76028 36.4725ZM1.83246 36.343C1.80681 36.388 1.78144 36.4341 1.76028 36.4725L3.51221 37.4373C3.53481 37.3963 3.55293 37.3634 3.56998 37.3335L1.83246 36.343ZM2.27078 35.5157C2.12699 35.8215 1.97656 36.0896 1.83194 36.3439L3.5705 37.3326C3.71744 37.0742 3.90129 36.7482 4.08065 36.3668L2.27078 35.5157ZM2.44112 34.0492C2.53581 34.5489 2.47416 35.0657 2.26456 35.5292L4.08687 36.3533C4.46589 35.5152 4.57742 34.5807 4.40618 33.6769L2.44112 34.0492ZM0.867607 32.6598C1.27806 32.8693 1.64804 33.0628 1.9475 33.3117C2.23124 33.5476 2.38878 33.7831 2.44242 34.0559L4.40486 33.6702C4.23565 32.8093 3.739 32.2002 3.22603 31.7738C2.72877 31.3604 2.1595 31.0738 1.77695 30.8785L0.867607 32.6598ZM7.68328 14.4637L7.77614 14.0616L5.82743 13.6115L5.73457 14.0136L7.68328 14.4637ZM5.75946 13.9247L5.75853 13.9276L7.65932 14.5497L7.66026 14.5468L5.75946 13.9247ZM7.635 14.3565C7.67283 14.3653 7.69659 14.4027 7.68866 14.4406L5.73106 14.031C5.51648 15.0563 6.15967 16.0656 7.17986 16.304L7.635 14.3565ZM7.54957 14.4081C7.55926 14.3706 7.59718 14.3476 7.635 14.3565L7.17986 16.304C8.20007 16.5424 9.22395 15.9227 9.486 14.9084L7.54957 14.4081ZM7.63585 14.0295L7.54299 14.4352L9.49258 14.8814L9.58544 14.4757L7.63585 14.0295ZM8.28329 11.6452C8.02054 12.4325 7.80312 13.2343 7.6321 14.0465L9.58918 14.4586C9.74447 13.7212 9.94188 12.9932 10.1804 12.2783L8.28329 11.6452ZM11.0474 7.10242C9.8338 8.40818 8.89636 9.94553 8.29124 11.6223L10.1725 12.3012C10.6862 10.8777 11.4821 9.57252 12.5124 8.46397L11.0474 7.10242ZM15.8152 4.46355C14.0462 4.91129 12.421 5.8036 11.0936 7.05581L12.4661 8.51059C13.5455 7.49222 14.8673 6.76654 16.306 6.40241L15.8152 4.46355ZM15.7216 4.56505C15.7102 4.52751 15.7313 4.48793 15.7687 4.47652L16.3525 6.38944C17.3714 6.07853 17.9455 5.00043 17.6346 3.98133L15.7216 4.56505ZM15.81 4.61217C15.7727 4.62355 15.7331 4.60251 15.7216 4.56505L17.6346 3.98133C17.3236 2.9623 16.2455 2.38832 15.2265 2.6992L15.81 4.61217ZM11.1237 7.22731C12.4232 5.97471 14.0233 5.07796 15.7701 4.62346L15.2664 2.68791C13.1872 3.22892 11.2825 4.29637 9.73572 5.78736L11.1237 7.22731ZM8.42944 11.6626C9.02916 10.0024 9.95847 8.48064 11.1615 7.18887L9.69793 5.82581C8.31106 7.31497 7.23975 9.06928 6.5484 10.9832L8.42944 11.6626ZM7.78033 14.0426C7.95129 13.2305 8.1703 12.4294 8.4362 11.6433L6.54165 11.0025C6.25039 11.8635 6.0105 12.7411 5.82324 13.6305L7.78033 14.0426ZM6.5 17.7142C6.46055 17.7142 6.42858 17.6823 6.42858 17.6428H8.42858C8.42858 16.5777 7.56513 15.7142 6.5 15.7142V17.7142ZM6.57142 17.6428C6.57142 17.6822 6.53946 17.7142 6.5 17.7142V15.7142C5.43487 15.7142 4.57142 16.5777 4.57142 17.6428H6.57142ZM6.5 17.5713C6.53937 17.5713 6.57142 17.6032 6.57142 17.6428H4.57142C4.57142 18.7079 5.43496 19.5713 6.5 19.5713V17.5713ZM6.42858 17.6428C6.42858 17.6032 6.46064 17.5713 6.5 17.5713V19.5713C7.56504 19.5713 8.42858 18.7079 8.42858 17.6428H6.42858ZM45.4293 23.2141C45.4293 23.1744 45.4614 23.1425 45.5007 23.1425V25.1425C46.5658 25.1425 47.4293 24.2792 47.4293 23.2141H45.4293ZM45.5007 23.2855C45.4613 23.2855 45.4293 23.2535 45.4293 23.2141H47.4293C47.4293 22.1489 46.5659 21.2855 45.5007 21.2855V23.2855ZM45.5721 23.2141C45.5721 23.2535 45.5402 23.2855 45.5007 23.2855V21.2855C44.4356 21.2855 43.5721 22.1489 43.5721 23.2141H45.5721ZM45.5007 23.1425C45.5401 23.1425 45.5721 23.1744 45.5721 23.2141H43.5721C43.5721 24.2792 44.4357 25.1425 45.5007 25.1425V23.1425ZM40.2756 14.5867C39.6429 16.6762 38.4525 18.5536 36.8324 20.017L38.173 21.5011C40.063 19.794 41.4517 17.6038 42.1898 15.1664L40.2756 14.5867ZM40.2327 14.8728V14.8766H42.2327V14.8728H40.2327ZM52.9869 26.2076C53.0987 19.5876 47.884 14.0996 41.2668 13.8734L41.1985 15.8722C46.7252 16.0612 51.0806 20.6448 50.9872 26.1738L52.9869 26.2076ZM40.8567 38.1391C47.4777 38.1365 52.8751 32.8277 52.9869 26.2076L50.9872 26.1738C50.8938 31.703 46.3862 36.1369 40.8563 36.1391L40.8567 38.1391ZM39.8378 38.0882C40.1547 38.1149 40.4982 38.1391 40.8567 38.1391L40.8563 36.1391C40.5833 36.1391 40.3069 36.1206 40.0054 36.0953L39.8378 38.0882ZM39.9169 38.0917H39.9216V36.0917H39.9169V38.0917ZM39.9067 38.0917H39.9169V36.0917H39.9067V38.0917ZM31.2112 33.4274C33.2932 36.1331 36.4262 37.8275 39.8301 38.0888L39.9832 36.0947C37.1448 35.8768 34.5323 34.4639 32.7962 32.2078L31.2112 33.4274ZM28.9133 23.9019C28.2938 27.2593 29.129 30.7217 31.2112 33.4274L32.7962 32.2078C31.06 29.9517 30.3636 27.0644 30.8801 24.2647L28.9133 23.9019ZM33.0735 22.3334C32.027 22.7375 30.9288 22.9913 29.8114 23.0869L29.982 25.0796C31.288 24.9678 32.5714 24.6712 33.7939 24.1991L33.0735 22.3334ZM35.9467 24.9799C35.0875 24.8501 34.4478 24.1186 34.4336 23.2499L32.4338 23.2826C32.4641 25.128 33.8228 26.6817 35.6478 26.9575L35.9467 24.9799ZM37.9035 23.7742C37.633 24.6 36.8057 25.1097 35.9467 24.9799L35.6478 26.9575C37.4727 27.2332 39.2298 26.1504 39.8041 24.3966L37.9035 23.7742ZM37.0385 21.6448C37.808 22.0481 38.1738 22.9483 37.9035 23.7742L39.8041 24.3966C40.3782 22.6425 39.6016 20.7302 37.967 19.8734L37.0385 21.6448ZM45.4995 33.3571C45.539 33.3571 45.5709 33.389 45.5709 33.4285H43.5709C43.5709 34.4936 44.4344 35.3571 45.4995 35.3571V33.3571ZM45.4281 33.4285C45.4281 33.389 45.4601 33.3571 45.4995 33.3571V35.3571C46.5647 35.3571 47.4281 34.4936 47.4281 33.4285H45.4281ZM40.8567 28.8571C43.3814 28.8571 45.4281 30.9038 45.4281 33.4285H47.4281C47.4281 29.7992 44.486 26.8571 40.8567 26.8571V28.8571ZM36.2852 33.4285C36.2852 30.9038 38.3319 28.8571 40.8567 28.8571V26.8571C37.2273 26.8571 34.2852 29.7992 34.2852 33.4285H36.2852ZM36.2138 33.3571C36.2532 33.3571 36.2852 33.389 36.2852 33.4285H34.2852C34.2852 34.4936 35.1486 35.3571 36.2138 35.3571V33.3571ZM36.1423 33.4285C36.1423 33.389 36.1743 33.3571 36.2138 33.3571V35.3571C37.2789 35.3571 38.1423 34.4936 38.1423 33.4285H36.1423ZM40.8567 28.7142C38.2531 28.7142 36.1423 30.8247 36.1423 33.4285H38.1423C38.1423 31.9294 39.3576 30.7142 40.8567 30.7142V28.7142ZM45.5709 33.4285C45.5709 30.8248 43.4602 28.7142 40.8567 28.7142V30.7142C42.3557 30.7142 43.5709 31.9294 43.5709 33.4285H45.5709ZM45.4995 24.9999C44.5132 24.9999 43.7138 24.2003 43.7138 23.2142H41.7138C41.7138 25.305 43.4087 26.9999 45.4995 26.9999V24.9999ZM47.2852 23.2142C47.2852 24.2004 46.4857 24.9999 45.4995 24.9999V26.9999C47.5902 26.9999 49.2852 25.3049 49.2852 23.2142H47.2852ZM45.4995 21.4285C46.4856 21.4285 47.2852 22.2279 47.2852 23.2142H49.2852C49.2852 21.1234 47.5903 19.4285 45.4995 19.4285V21.4285ZM43.7138 23.2142C43.7138 22.228 44.5133 21.4285 45.4995 21.4285V19.4285C43.4087 19.4285 41.7138 21.1234 41.7138 23.2142H43.7138Z" fill="#DD5454"/>
</g>
</svg>
