<svg width="94" height="83" viewBox="0 0 94 83" fill="none" xmlns="http://www.w3.org/2000/svg">
<circle cx="34.1113" cy="34.7719" r="33.6528" fill="#FFEA99" fill-opacity="0.5"/>
<path d="M42.875 49.7544C42.3188 49.7544 41.775 49.5894 41.3125 49.2804C40.85 48.9714 40.4895 48.5321 40.2766 48.0182C40.0637 47.5043 40.008 46.9388 40.1166 46.3932C40.2251 45.8476 40.4929 45.3465 40.8863 44.9532C41.2796 44.5598 41.7807 44.292 42.3263 44.1834C42.8719 44.0749 43.4374 44.1306 43.9513 44.3435C44.4652 44.5564 44.9045 44.9168 45.2135 45.3794C45.5226 45.8419 45.6875 46.3856 45.6875 46.9419C45.6875 47.6878 45.3912 48.4032 44.8638 48.9306C44.3363 49.4581 43.6209 49.7544 42.875 49.7544ZM63.125 44.1294C62.5688 44.1294 62.025 44.2943 61.5625 44.6034C61.1 44.9124 60.7395 45.3517 60.5266 45.8656C60.3137 46.3795 60.258 46.945 60.3666 47.4906C60.4751 48.0362 60.7429 48.5373 61.1363 48.9306C61.5296 49.324 62.0308 49.5918 62.5763 49.7004C63.1219 49.8089 63.6874 49.7532 64.2013 49.5403C64.7152 49.3274 65.1545 48.967 65.4635 48.5044C65.7726 48.0419 65.9375 47.4982 65.9375 46.9419C65.9375 46.196 65.6412 45.4806 65.1138 44.9532C64.5863 44.4257 63.8709 44.1294 63.125 44.1294ZM59.975 56.7631C57.881 58.0639 55.4651 58.7532 53 58.7532C50.5349 58.7532 48.119 58.0639 46.025 56.7631C45.6461 56.5244 45.1879 56.4461 44.7511 56.5452C44.3144 56.6444 43.935 56.913 43.6963 57.2919C43.4576 57.6708 43.3792 58.1291 43.4783 58.5658C43.5775 59.0025 43.8461 59.382 44.225 59.6206C46.8579 61.2611 49.8979 62.1306 53 62.1306C56.1021 62.1306 59.1421 61.2611 61.775 59.6206C61.9626 59.5025 62.1251 59.3485 62.2533 59.1675C62.3814 58.9865 62.4726 58.782 62.5217 58.5658C62.5708 58.3495 62.5768 58.1257 62.5394 57.9072C62.502 57.6886 62.422 57.4795 62.3038 57.2919C62.1856 57.1043 62.0316 56.9418 61.8506 56.8136C61.6696 56.6855 61.4651 56.5943 61.2489 56.5452C61.0326 56.4961 60.8089 56.4901 60.5903 56.5275C60.3717 56.5649 60.1626 56.645 59.975 56.7631ZM81.6875 46.9419C81.6875 52.6157 80.005 58.1622 76.8528 62.8798C73.7006 67.5975 69.2202 71.2744 63.9782 73.4457C58.7363 75.617 52.9682 76.1851 47.4034 75.0782C41.8385 73.9713 36.7269 71.239 32.7149 67.227C28.7029 63.215 25.9706 58.1034 24.8637 52.5385C23.7568 46.9737 24.3249 41.2056 26.4962 35.9637C28.6675 30.7217 32.3445 26.2413 37.0621 23.0891C41.7797 19.9369 47.3262 18.2544 53 18.2544C60.6057 18.2633 67.8973 21.2886 73.2753 26.6666C78.6533 32.0446 81.6786 39.3362 81.6875 46.9419ZM78.3125 46.9419C78.3046 40.3737 75.747 34.0652 71.1788 29.3458C66.6105 24.6265 60.3885 21.865 53.8241 21.6435C50.2719 26.4753 50.1875 31.1497 50.1875 31.1919C50.1875 31.9378 50.4838 32.6532 51.0113 33.1806C51.5387 33.7081 52.2541 34.0044 53 34.0044C53.7459 34.0044 54.4613 33.7081 54.9888 33.1806C55.5162 32.6532 55.8125 31.9378 55.8125 31.1919C55.8125 30.7443 55.9903 30.3151 56.3068 29.9987C56.6232 29.6822 57.0525 29.5044 57.5 29.5044C57.9476 29.5044 58.3768 29.6822 58.6933 29.9987C59.0097 30.3151 59.1875 30.7443 59.1875 31.1919C59.1875 32.8329 58.5356 34.4067 57.3752 35.5671C56.2149 36.7275 54.641 37.3794 53 37.3794C51.359 37.3794 49.7852 36.7275 48.6248 35.5671C47.4644 34.4067 46.8125 32.8329 46.8125 31.1919C46.8125 30.981 46.8547 26.7425 49.6644 21.8488C44.8429 22.4897 40.3082 24.5062 36.6028 27.657C32.8973 30.8079 30.1782 34.9595 28.7706 39.6153C27.363 44.2711 27.3267 49.2338 28.6658 53.9098C30.005 58.5857 32.663 62.7768 36.3218 65.9816C39.9806 69.1863 44.4853 71.2691 49.2969 71.9807C54.1085 72.6923 59.0232 72.0025 63.453 69.9939C67.8828 67.9853 71.6401 64.743 74.2754 60.6548C76.9106 56.5667 78.3122 51.8058 78.3125 46.9419Z" fill="#06110C" fill-opacity="0.8"/>
</svg>
