<svg width="49" height="49" viewBox="0 0 49 49" fill="none" xmlns="http://www.w3.org/2000/svg">
<rect x="0.974121" y="0.817383" width="46.98" height="46.98" rx="23.49" stroke="#FAFAFA"/>
<path fill-rule="evenodd" clip-rule="evenodd" d="M21.25 16.4773C21.25 17.9973 22.48 19.2273 24 19.2273C25.52 19.2273 26.75 17.9973 26.75 16.4773C26.75 14.9573 25.52 13.7273 24 13.7273C22.48 13.7273 21.25 14.9573 21.25 16.4773ZM22.75 16.4773C22.75 16.1458 22.8817 15.8278 23.1161 15.5934C23.3505 15.359 23.6685 15.2273 24 15.2273C24.3315 15.2273 24.6495 15.359 24.8839 15.5934C25.1183 15.8278 25.25 16.1458 25.25 16.4773C25.25 16.8088 25.1183 17.1268 24.8839 17.3612C24.6495 17.5956 24.3315 17.7273 24 17.7273C23.6685 17.7273 23.3505 17.5956 23.1161 17.3612C22.8817 17.1268 22.75 16.8088 22.75 16.4773ZM21.77 34.7173C22.28 35.2273 22.93 35.2273 24 35.2273C25.07 35.2273 25.72 35.2273 26.24 34.7073C26.75 34.1973 26.75 33.5473 26.75 32.4773V29.2173C27.4 29.1873 27.85 29.0873 28.24 28.7073C28.75 28.1973 28.75 27.5473 28.75 26.4773V24.9773C28.75 22.9473 28.75 21.8373 27.95 21.0373C27.14 20.2273 26.02 20.2273 24 20.2273C21.98 20.2273 20.86 20.2273 20.06 21.0373C19.25 21.8373 19.25 22.9473 19.25 24.9773V26.4773C19.25 27.5473 19.25 28.1873 19.77 28.7173C20.15 29.0973 20.6 29.1973 21.25 29.2173V32.4773C21.25 33.5473 21.25 34.1873 21.77 34.7173ZM21.12 22.0973C21.47 21.7373 22.25 21.7273 24 21.7273V21.7373C25.75 21.7373 26.54 21.7473 26.89 22.1073C27.24 22.4573 27.25 23.2373 27.25 24.9873V26.4873C27.25 26.9873 27.25 27.5973 27.18 27.6673C27.07 27.7373 26.5 27.7373 26.001 27.7373H26C25.59 27.7373 25.25 28.0773 25.25 28.4873V32.4873C25.25 32.9873 25.25 33.5973 25.18 33.6673C24.96 33.8073 23.03 33.7973 22.83 33.6673C22.75 33.5773 22.75 32.9673 22.75 32.4773V28.4773C22.75 28.0673 22.41 27.7273 22 27.7273H21.998C21.498 27.7273 20.93 27.7273 20.83 27.6673C20.75 27.5773 20.75 26.9673 20.75 26.4773V24.9773C20.75 23.2373 20.77 22.4473 21.12 22.0973Z" fill="white"/>
</svg>
