<svg width="49" height="49" viewBox="0 0 49 49" fill="none" xmlns="http://www.w3.org/2000/svg">
<rect x="1.354" y="1.00732" width="46.98" height="46.98" rx="23.49" stroke="#FAFAFA"/>
<path d="M16 13.2273C14.89 13.2273 14 14.1173 14 15.2273V26.2273C14 27.3373 14.89 28.2273 16 28.2273H20V32.2273C20 33.3373 20.89 34.2273 22 34.2273H33C34.11 34.2273 35 33.3373 35 32.2273V21.2273C35 20.1173 34.11 19.2273 33 19.2273H29V15.2273C29 14.1173 28.11 13.2273 27 13.2273H16ZM16 15.2273H27V19.2273H22C20.89 19.2273 20 20.1173 20 21.2273V26.2273H16V15.2273ZM22 21.2273H27V26.2273H22V21.2273ZM29 21.2273H33V32.2273H22V28.2273H27C28.11 28.2273 29 27.3373 29 26.2273V21.2273Z" fill="white"/>
</svg>
