<svg width="94" height="84" viewBox="0 0 94 84" fill="none" xmlns="http://www.w3.org/2000/svg">
<circle cx="34.1113" cy="34.7719" r="33.6528" fill="#FFEA99" fill-opacity="0.5"/>
<path d="M77.0538 51.7617L73.0771 30.1054C72.9799 29.5775 72.7775 29.0754 72.4823 28.63C72.1871 28.1845 71.8053 27.8051 71.3605 27.5152C70.9157 27.2252 70.4171 27.0308 69.8956 26.9438C69.3741 26.8568 68.8405 26.8792 68.3278 27.0095L68.2527 27.0317L55.5331 30.8437H44.4651L31.7454 27.044L31.6703 27.0218C31.1576 26.8915 30.6241 26.8692 30.1025 26.9561C29.581 27.0431 29.0825 27.2375 28.6376 27.5275C28.1928 27.8175 27.811 28.1968 27.5158 28.6423C27.2206 29.0877 27.0182 29.5898 26.921 30.1177L22.9443 51.7617C22.7743 52.6285 22.9005 53.5283 23.3021 54.3123C23.7038 55.0963 24.3567 55.7176 25.1531 56.0732C25.6631 56.3106 26.2171 56.4347 26.7781 56.4374C27.4496 56.4369 28.1087 56.2533 28.6866 55.9059V66.2812C28.6866 68.8919 29.7072 71.3957 31.524 73.2418C33.3407 75.0878 35.8048 76.1249 38.3741 76.1249H61.6241C64.1934 76.1249 66.6574 75.0878 68.4742 73.2418C70.2909 71.3957 71.3116 68.8919 71.3116 66.2812V55.9083C71.8888 56.2553 72.5469 56.4389 73.2176 56.4399C73.7792 56.4383 74.3341 56.315 74.8451 56.0781C75.6424 55.7223 76.296 55.1003 76.6977 54.3152C77.0995 53.5302 77.2251 52.6292 77.0538 51.7617ZM26.7491 52.4999L30.7282 30.8437L40.917 33.8879L26.7491 52.4999ZM61.6241 72.1874H51.9366V69.0645L55.2449 65.7053C55.6084 65.3359 55.8127 64.8349 55.8127 64.3124C55.8127 63.79 55.6084 63.289 55.2449 62.9195C54.8813 62.5501 54.3882 62.3426 53.8741 62.3426C53.3599 62.3426 52.8668 62.5501 52.5033 62.9195L49.9991 65.4666L47.4949 62.9195C47.1313 62.5501 46.6382 62.3426 46.1241 62.3426C45.6099 62.3426 45.1168 62.5501 44.7533 62.9195C44.3897 63.289 44.1855 63.79 44.1855 64.3124C44.1855 64.8349 44.3897 65.3359 44.7533 65.7053L48.0616 69.0645V72.1874H38.3741C36.8325 72.1874 35.3541 71.5652 34.264 70.4575C33.174 69.3499 32.5616 67.8476 32.5616 66.2812V51.2965L45.136 34.7812H54.8598L67.4366 51.2965V66.2812C67.4366 67.8476 66.8242 69.3499 65.7341 70.4575C64.6441 71.5652 63.1656 72.1874 61.6241 72.1874ZM73.2491 52.4999L59.0811 33.8879L69.2699 30.8437L73.2491 52.4999ZM44.1866 55.4531C44.1866 56.0371 44.0161 56.6081 43.6968 57.0937C43.3774 57.5794 42.9235 57.9579 42.3925 58.1814C41.8615 58.4049 41.2771 58.4634 40.7133 58.3494C40.1496 58.2355 39.6317 57.9542 39.2253 57.5412C38.8188 57.1282 38.5421 56.602 38.4299 56.0292C38.3178 55.4563 38.3753 54.8626 38.5953 54.3229C38.8153 53.7833 39.1878 53.3221 39.6657 52.9976C40.1436 52.6731 40.7055 52.4999 41.2803 52.4999C42.0511 52.4999 42.7903 52.8111 43.3354 53.3649C43.8804 53.9187 44.1866 54.6698 44.1866 55.4531ZM61.6241 55.4531C61.6241 56.0371 61.4536 56.6081 61.1343 57.0937C60.8149 57.5794 60.361 57.9579 59.83 58.1814C59.299 58.4049 58.7146 58.4634 58.1508 58.3494C57.5871 58.2355 57.0692 57.9542 56.6628 57.5412C56.2564 57.1282 55.9796 56.602 55.8674 56.0292C55.7553 55.4563 55.8128 54.8626 56.0328 54.3229C56.2528 53.7833 56.6253 53.3221 57.1032 52.9976C57.5811 52.6731 58.143 52.4999 58.7178 52.4999C59.4886 52.4999 60.2278 52.8111 60.7729 53.3649C61.3179 53.9187 61.6241 54.6698 61.6241 55.4531Z" fill="#06110C" fill-opacity="0.8"/>
</svg>
