<svg width="49" height="49" viewBox="0 0 49 49" fill="none" xmlns="http://www.w3.org/2000/svg">
<rect x="1.354" y="0.817383" width="46.98" height="46.98" rx="23.49" stroke="#FAFAFA"/>
<path d="M14.2855 31.1154V18.1039L16.4352 19.8251C17.5204 20.6925 18.8695 21.1657 20.2581 21.1657H24.9998L27.2147 16.7359C27.4696 16.2281 27.8605 15.801 28.3439 15.5022C28.8273 15.2035 29.3841 15.0448 29.9524 15.0439H31.1215V18.8702L35.7141 20.4011V21.9319C35.7141 23.6222 34.3427 24.9919 32.6524 24.9919H29.5941V31.1154C29.6025 31.4222 29.5493 31.7276 29.4377 32.0135C29.326 32.2995 29.1582 32.5601 28.9442 32.7801C28.7301 33.0001 28.4741 33.175 28.1914 33.2944C27.9086 33.4137 27.6048 33.4753 27.2978 33.4753C26.9909 33.4753 26.687 33.4137 26.4043 33.2944C26.1215 33.175 25.8655 33.0001 25.6515 32.7801C25.4374 32.5601 25.2696 32.2995 25.158 32.0135C25.0463 31.7276 24.9931 31.4222 25.0015 31.1154V30.3491C25.0015 29.5039 24.3158 28.8199 23.4707 28.8199H20.4072C19.5621 28.8199 18.8781 29.5057 18.8781 30.3491V31.1154C18.8865 31.4222 18.8333 31.7276 18.7217 32.0135C18.61 32.2995 18.4422 32.5601 18.2282 32.7801C18.0141 33.0001 17.7581 33.175 17.4754 33.2944C17.1926 33.4137 16.8888 33.4753 16.5818 33.4753C16.2749 33.4753 15.971 33.4137 15.6883 33.2944C15.4055 33.175 15.1495 33.0001 14.9355 32.7801C14.7214 32.5601 14.5536 32.2995 14.442 32.0135C14.3303 31.7276 14.2771 31.4222 14.2855 31.1154Z" stroke="white" stroke-linecap="round" stroke-linejoin="round"/>
<path d="M25.0205 20.9651C25.3205 22.1942 26.7348 24.7279 29.9834 25.0365" stroke="white" stroke-linecap="round" stroke-linejoin="round"/>
</svg>
