<svg width="94" height="81" viewBox="0 0 94 81" fill="none" xmlns="http://www.w3.org/2000/svg">
<circle cx="34.1113" cy="34.7719" r="33.6528" fill="#FFEA99" fill-opacity="0.5"/>
<path d="M36.076 75.5852H67.9501C71.3969 75.5852 73.4114 73.6757 73.4114 70.3127V48.5316L76.5424 51.347C77.053 51.8243 77.6112 52.1582 78.2907 52.1582C79.431 52.1582 80.3538 51.4661 80.3538 50.321C80.3538 49.6054 80.0866 49.1525 79.6257 48.7463L71.2022 41.1837V27.1342C71.2022 26.0848 70.5228 25.4171 69.455 25.4171H66.2753C65.2313 25.4171 64.5022 26.0848 64.5022 27.1342V35.1976L54.9146 26.609C54.0653 25.8456 53.0451 25.4171 52.0011 25.4171C50.9571 25.4171 49.938 25.8456 49.0887 26.609L24.3765 48.7474C23.9395 49.1535 23.6484 49.6064 23.6484 50.322C23.6484 51.4671 24.5702 52.1592 25.7116 52.1592C26.4159 52.1592 26.9741 51.8254 27.4599 51.348L30.5908 48.557V70.3137C30.5908 73.6767 32.6063 75.5862 36.077 75.5862M58.9912 55.9039C58.9912 54.8067 58.2631 54.1145 57.1465 54.1145H46.8526C45.7361 54.1145 44.9842 54.8067 44.9842 55.9039V71.7428H36.9004C35.3468 71.7428 34.4975 70.9081 34.4975 69.3569V45.0495L51.1508 30.1389C51.3932 29.9007 51.6842 29.7572 52.0001 29.7572C52.316 29.7572 52.607 29.8763 52.8742 30.1389L69.5016 45.0495V69.358C69.5016 70.9092 68.6523 71.7438 67.1236 71.7438H58.9912V55.9039Z" fill="#06110C" fill-opacity="0.8"/>
</svg>
