<svg width="49" height="49" viewBox="0 0 49 49" fill="none" xmlns="http://www.w3.org/2000/svg">
<rect x="0.974121" y="1.00732" width="46.98" height="46.98" rx="23.49" stroke="#FAFAFA"/>
<path d="M24 25.2273V33.2273M24 15.2273V18.2273M16 18.2273C15.7348 18.2273 15.4804 18.3327 15.2929 18.5202C15.1054 18.7077 15 18.9621 15 19.2273V24.2273C15 24.4925 15.1054 24.7469 15.2929 24.9344C15.4804 25.1219 15.7348 25.2273 16 25.2273H29C29.4124 25.2273 29.8148 25.0998 30.152 24.8623L33.576 22.5453C33.707 22.453 33.8139 22.3305 33.8877 22.1883C33.9615 22.046 34.0001 21.8881 34.0001 21.7278C34.0001 21.5675 33.9615 21.4096 33.8877 21.2673C33.8139 21.125 33.707 21.0026 33.576 20.9103L30.152 18.5923C29.8148 18.3548 29.4124 18.2273 29 18.2273H16Z" stroke="white" stroke-width="2" stroke-linecap="round" stroke-linejoin="round"/>
</svg>
