<svg width="52" height="53" viewBox="0 0 52 53" fill="none" xmlns="http://www.w3.org/2000/svg">
<path d="M45.8777 24.0965C44.1083 23.2119 40.7908 23.2017 40.6504 23.2017C40.2297 23.2017 39.8887 23.5427 39.8887 23.9634C39.8887 24.3841 40.2297 24.7251 40.6504 24.7251C41.5065 24.7252 43.992 24.857 45.1965 25.4592C45.3058 25.5139 45.422 25.5397 45.5365 25.5397C45.8159 25.5397 46.0849 25.3854 46.2184 25.1186C46.4066 24.7423 46.254 24.2847 45.8777 24.0965Z" fill="#FF782C"/>
<path d="M49.6754 42.0287L46.5295 41.1299C46.3937 41.0911 46.2989 40.9654 46.2989 40.8241V39.774C46.5548 39.5967 46.799 39.3982 47.0272 39.1767C48.1332 38.1034 48.7423 36.6638 48.7423 35.1229V33.6739L49.0465 33.0656C49.3803 32.3978 49.5567 31.6502 49.5567 30.9038V26.9784C49.5567 26.5577 49.2157 26.2166 48.795 26.2166H41.4649C38.7995 26.2166 36.631 28.3852 36.631 31.0506V31.096C36.631 31.7168 36.7777 32.3384 37.0553 32.8936L37.4454 33.6738V34.9179C37.4454 36.8897 38.417 38.6588 39.8888 39.7233L39.889 40.8239C39.889 40.9936 39.889 41.0639 39.26 41.2436L37.725 41.6822L33.2846 40.0675C33.3005 39.858 33.2298 39.6449 33.077 39.4844L31.658 37.9936V35.4911C31.8081 35.3675 31.9559 35.2406 32.0992 35.1063C33.8893 33.4285 34.9159 31.0597 34.9159 28.6072V26.6087C35.4564 25.4325 35.7303 24.1878 35.7303 22.906V14.7617C35.7303 14.341 35.3893 14 34.9686 14H23.5663C19.5535 14 16.289 17.2646 16.289 21.2773V22.9062C16.289 24.188 16.5629 25.4327 17.1034 26.6089V28.3284C17.1034 31.1758 18.3695 33.7411 20.3612 35.4323V37.9937L18.9423 39.4845C18.7895 39.645 18.7188 39.8581 18.7347 40.0676L14.0481 41.7718C13.7085 41.8953 13.3929 42.0625 13.1064 42.2651L12.3705 41.8972C14.5612 40.9436 15.2552 39.6025 15.2885 39.5359C15.3958 39.3215 15.3958 39.069 15.2885 38.8546C14.7394 37.7563 14.6728 35.7432 14.6194 34.1257C14.6016 33.5872 14.5848 33.0785 14.5526 32.6255C14.2929 28.9719 11.5154 26.2166 8.09169 26.2166C4.66802 26.2166 1.89038 28.9718 1.63079 32.6255C1.59859 33.0786 1.58173 33.5873 1.56396 34.1259C1.51054 35.7433 1.44391 37.7562 0.894867 38.8545C0.787617 39.0689 0.787617 39.3214 0.894867 39.5358C0.92818 39.6024 1.62073 40.9408 3.8158 41.8955L1.77166 42.9175C0.678844 43.4643 0 44.5627 0 45.7844V51.4119C0 51.8325 0.341047 52.1736 0.761719 52.1736C1.18239 52.1736 1.52344 51.8325 1.52344 51.4119V45.7844C1.52344 45.1433 1.87962 44.567 2.45294 44.2803L4.9984 43.0076L5.88382 43.849C6.50295 44.4374 7.29716 44.7314 8.09169 44.7314C8.88601 44.7314 9.68063 44.4372 10.2996 43.849L11.1849 43.0077L12.0148 43.4227C11.624 44.048 11.4022 44.7813 11.4022 45.5494V51.4121C11.4022 51.8327 11.7433 52.1738 12.1639 52.1738C12.5846 52.1738 12.9257 51.8327 12.9257 51.4121V45.5494C12.9257 44.5037 13.5859 43.561 14.5687 43.2036L19.51 41.4068L21.5669 44.4924C21.8298 44.8869 22.2512 45.1399 22.723 45.1866C22.7756 45.1918 22.8279 45.1943 22.8801 45.1943C23.2963 45.1943 23.6949 45.0305 23.9929 44.7326L25.2478 43.4777V51.4122C25.2478 51.8328 25.5889 52.1739 26.0095 52.1739C26.4302 52.1739 26.7713 51.8328 26.7713 51.4122V43.4777L28.0262 44.7326C28.3241 45.0306 28.7227 45.1944 29.139 45.1944C29.1911 45.1944 29.2435 45.1919 29.296 45.1867C29.7679 45.14 30.1893 44.887 30.4522 44.4925L32.5092 41.407L37.4504 43.2038C38.4331 43.5612 39.0934 44.5039 39.0934 45.5496V51.4123C39.0934 51.8329 39.4345 52.174 39.8552 52.174C40.2758 52.174 40.6169 51.8329 40.6169 51.4123V45.5496C40.6169 44.4905 40.1961 43.4972 39.4902 42.7626L39.6784 42.7089C39.8683 42.6546 40.1272 42.5804 40.3872 42.4529L42.3321 44.3978V51.4123C42.3321 51.8329 42.6731 52.174 43.0938 52.174C43.5145 52.174 43.8555 51.8329 43.8555 51.4123V44.3978L45.7868 42.4664C45.8895 42.5187 45.9974 42.5627 46.1109 42.5951L49.2569 43.494C49.9749 43.6991 50.4766 44.364 50.4766 45.1109V51.4123C50.4766 51.8329 50.8176 52.174 51.2383 52.174C51.659 52.174 52 51.8329 52 51.4123V45.1109C52 43.6872 51.0441 42.4198 49.6754 42.0287ZM4.88668 40.6833C3.46186 40.1706 2.74716 39.4871 2.44207 39.1139C2.65007 38.5701 2.78495 37.9473 2.87625 37.2899C3.29631 38.2971 3.99984 39.1569 4.88668 39.7704V40.6833ZM9.25031 42.7448C8.60062 43.3621 7.58286 43.362 6.93337 42.7447L6.22497 42.0716C6.34451 41.8476 6.41022 41.5937 6.41022 41.3277V40.5158C6.94159 40.6819 7.50648 40.7715 8.09189 40.7715C8.67659 40.7715 9.24117 40.6815 9.77346 40.5163L9.77336 41.3276C9.77336 41.5937 9.83897 41.8477 9.95861 42.0718L9.25031 42.7448ZM8.09209 39.248C5.8175 39.248 3.96713 37.3976 3.96713 35.1231C3.96713 34.7024 3.62609 34.3614 3.20541 34.3614C3.16276 34.3614 3.12112 34.3657 3.08039 34.3725C3.08262 34.307 3.08476 34.2414 3.08699 34.1765C3.10395 33.6528 3.1203 33.158 3.15047 32.7337C3.24777 31.3651 3.79468 30.1039 4.69046 29.1823C5.59427 28.2524 6.80225 27.7403 8.09189 27.7403C9.38153 27.7403 10.5894 28.2524 11.4933 29.1823C12.3891 30.1039 12.936 31.3651 13.0333 32.7337C13.0634 33.1579 13.0798 33.6525 13.0971 34.1762C13.0986 34.2212 13.1001 34.2668 13.1017 34.3121C12.2729 33.0353 10.993 32.0943 9.33928 31.5629C7.81148 31.072 6.49746 31.1024 6.44201 31.1038C6.24254 31.1094 6.05323 31.1929 5.9148 31.3365L4.54045 32.7618C4.24846 33.0647 4.25719 33.5469 4.56005 33.8389C4.86291 34.1309 5.34513 34.1221 5.63713 33.8193L6.78072 32.6334C7.76557 32.6815 10.934 33.05 12.1663 35.7634C11.8562 37.763 10.1376 39.248 8.09209 39.248ZM11.2967 40.6859L11.2968 39.7774C12.1829 39.1673 12.8875 38.3091 13.3078 37.2943C13.3991 37.9502 13.5339 38.5715 13.7415 39.1141C13.4381 39.4838 12.7201 40.1734 11.2967 40.6859ZM18.6269 28.3283V26.4385C18.6269 26.3238 18.601 26.2106 18.5511 26.1073C18.061 25.0923 17.8124 24.0153 17.8124 22.9062V21.2774C17.8124 18.1046 20.3936 15.5235 23.5663 15.5235H34.2069V22.9063C34.2069 24.0154 33.9583 25.0924 33.4682 26.1074C33.4183 26.2107 33.3924 26.3239 33.3924 26.4386V28.6074C33.3924 30.6703 32.5632 32.5836 31.0574 33.995C30.8694 34.1711 30.6743 34.3363 30.4726 34.4901C30.4681 34.4932 30.4639 34.4965 30.4595 34.4997C29.0489 35.5707 27.3211 36.0912 25.5168 35.9743C21.6532 35.7241 18.6269 32.3657 18.6269 28.3283ZM22.9158 43.6552C22.9105 43.6605 22.8982 43.673 22.8733 43.6704C22.8485 43.6679 22.8388 43.6534 22.8346 43.6471L20.4657 40.0936L21.228 39.2926L24.8218 41.7491L22.9158 43.6552ZM26.0096 40.7157L21.8847 37.8961V36.4743C22.952 37.0512 24.1471 37.4121 25.4181 37.4944C25.6189 37.5074 25.8185 37.5138 26.0175 37.5138C27.474 37.5138 28.8757 37.1656 30.1346 36.5047V37.8961L26.0096 40.7157ZM29.1847 43.6473C29.1805 43.6536 29.1708 43.6681 29.146 43.6706C29.1211 43.6737 29.1089 43.6606 29.1035 43.6554L27.1975 41.7494L30.7913 39.2928L31.5537 40.0938L29.1847 43.6473ZM43.0938 43.0046L41.3652 41.2761C41.3954 41.1391 41.4124 40.9891 41.4123 40.8237L41.4122 40.5022C41.8919 40.6596 42.3975 40.7531 42.9206 40.7687C42.9793 40.7706 43.0375 40.7714 43.096 40.7714C43.6741 40.7714 44.2384 40.684 44.7755 40.5174V40.8241C44.7755 40.976 44.7945 41.1249 44.8305 41.268L43.0938 43.0046ZM45.9663 38.0835C45.159 38.867 44.0924 39.2807 42.9664 39.246C40.7621 39.1799 38.9688 37.2383 38.9688 34.9181V33.4941C38.9688 33.3758 38.9413 33.2592 38.8884 33.1535L38.4178 32.2124C38.2455 31.8676 38.1544 31.4816 38.1544 31.0961V31.0507C38.1544 29.2252 39.6395 27.7402 41.4649 27.7402H48.0333V30.9039C48.0333 31.4151 47.9124 31.9271 47.6838 32.3844L47.2993 33.1535C47.2464 33.2593 47.2188 33.3758 47.2188 33.4941V35.123C47.2188 36.2483 46.774 37.2997 45.9663 38.0835Z" fill="#FF782C"/>
<path d="M47.9804 38.6765C47.5597 38.6765 47.2188 39.0176 47.2188 39.4382V44.3249C47.2188 44.7456 47.5597 45.0866 47.9804 45.0866C48.401 45.0866 48.7421 44.7456 48.7421 44.3249V39.4382C48.7421 39.0177 48.401 38.6765 47.9804 38.6765Z" fill="#FF782C"/>
<path d="M4.01953 39.6833C3.59886 39.6833 3.25781 40.0244 3.25781 40.4451V44.325C3.25781 44.7456 3.59886 45.0867 4.01953 45.0867C4.4402 45.0867 4.78125 44.7456 4.78125 44.325V40.4451C4.78125 40.0245 4.4402 39.6833 4.01953 39.6833Z" fill="#FF782C"/>
<path d="M32.2495 16.0951C29.3686 13.2141 23.3409 13.7649 20.8829 14.1354C20.1087 14.2521 19.5469 14.9073 19.5469 15.6933V17.4481C19.5469 17.8687 19.8879 18.2098 20.3086 18.2098C20.7292 18.2098 21.0703 17.8687 21.0703 17.4481V15.6932C21.0703 15.6673 21.0874 15.6451 21.1101 15.6417C22.0919 15.4937 24.0402 15.2654 26.0587 15.4C28.4341 15.5581 30.1545 16.1544 31.1723 17.1722C31.4698 17.4697 31.9521 17.4697 32.2495 17.1722C32.547 16.8747 32.547 16.3924 32.2495 16.0951Z" fill="#FF782C"/>
<path d="M17.0508 40.3054C16.6301 40.3054 16.2891 40.6465 16.2891 41.0671V44.325C16.2891 44.7456 16.6301 45.0867 17.0508 45.0867C17.4715 45.0867 17.8125 44.7456 17.8125 44.325V41.0671C17.8125 40.6466 17.4715 40.3054 17.0508 40.3054Z" fill="#FF782C"/>
<path d="M34.9687 40.3054C34.5481 40.3054 34.207 40.6465 34.207 41.0671V44.325C34.207 44.7456 34.5481 45.0867 34.9687 45.0867C35.3894 45.0867 35.7304 44.7456 35.7304 44.325V41.0671C35.7304 40.6466 35.3894 40.3054 34.9687 40.3054Z" fill="#FF782C"/>
</svg>
