<svg width="21" height="25" viewBox="0 0 21 25" fill="none" xmlns="http://www.w3.org/2000/svg">
<path d="M11.2036 4.50866C11.1744 4.07051 10.9408 3.83683 10.5029 3.80762C10.0649 3.83683 9.83134 4.07051 9.80215 4.50866V12.2201H2.09427C1.65632 12.2493 1.42275 12.483 1.39355 12.9211C1.42275 13.3593 1.65632 13.593 2.09427 13.6222H9.80215V21.3336C9.83134 21.7718 10.0649 22.0055 10.5029 22.0347C10.9408 22.0055 11.1744 21.7718 11.2036 21.3336V13.6222H18.9115C19.3494 13.593 19.583 13.3593 19.6122 12.9211C19.583 12.483 19.3494 12.2493 18.9115 12.2201H11.2036V4.50866Z" fill="#06110C"/>
</svg>
