<svg width="18" height="13" viewBox="0 0 18 13" fill="none" xmlns="http://www.w3.org/2000/svg">
<path d="M16.6172 5.50549C15.4922 5.50549 14.4922 5.06799 13.6172 4.19299C12.7422 3.31799 12.3047 2.31799 12.3047 1.19299V0.278931H10.4766V1.19299C10.4766 2.00549 10.6406 2.78284 10.9688 3.52502C11.2969 4.26721 11.7422 4.92737 12.3047 5.50549H0.914062V7.33362H12.3047C11.7422 7.91174 11.2969 8.5719 10.9688 9.31409C10.6406 10.0563 10.4766 10.8336 10.4766 11.6461V12.5602H12.3047V11.6461C12.3047 10.5211 12.7422 9.52112 13.6172 8.64612C14.4922 7.77112 15.4922 7.33362 16.6172 7.33362H17.5312V5.50549H16.6172Z" fill="white"/>
</svg>
