<svg width="52" height="53" viewBox="0 0 52 53" fill="none" xmlns="http://www.w3.org/2000/svg">
<mask id="mask0_12_2335" style="mask-type:luminance" maskUnits="userSpaceOnUse" x="0" y="0" width="53" height="53">
<path fill-rule="evenodd" clip-rule="evenodd" d="M42.7561 10.8557C42.7561 4.97616 37.9705 0.0900879 32.0897 0.0900879C29.798 0.0900879 27.6568 1.07047 25.9946 2.83492C24.3324 1.07047 22.1911 0.0900879 19.8996 0.0900879C14.0188 0.0900879 9.2333 4.97616 9.2333 10.8557C9.2333 16.7684 13.5724 19.8212 18.5979 23.3568L18.6005 23.3586C20.6733 24.8164 22.8177 26.3251 24.9962 28.2145L25.9931 29.0804L26.9916 28.2159C29.4478 26.0912 31.7841 24.4267 33.8455 22.9581L33.862 22.9464C38.8306 19.4102 42.7561 16.6161 42.7561 10.8557ZM30.566 15.426H27.5184V18.4728H24.4709V15.426H21.4233V12.3791H24.4709V9.33228H27.5184V12.3791H30.566V15.426ZM50.1716 14.0243C47.3689 14.0243 46.4409 25.7646 46.2407 28.298C46.2188 28.5745 46.2056 28.7413 46.1996 28.7713C45.8901 30.8874 44.3991 34.02 41.881 35.9062L35.2809 40.6972L33.4536 38.2574L40.0537 33.4678C42.6682 31.508 43.8597 28.1618 40.5922 28.1618C37.6658 28.1618 32.1955 31.5493 30.5739 32.8931C28.6374 34.4976 27.5184 36.882 27.5184 39.3967V52.09H36.6609C36.6609 50.6274 37.4532 49.033 38.6721 47.5095C39.9522 45.8337 41.7808 44.1274 43.6701 42.3907L43.7833 42.2843C47.344 38.9359 50.9994 35.4982 51.482 32.001C51.7715 29.6268 52.0121 25.5549 52 21.926C51.9868 17.8619 51.6425 14.1556 50.1716 14.0243ZM11.3966 28.1618C13.4994 28.1618 16.7601 29.6548 21.0572 32.6103C23.2066 34.2306 24.4704 36.766 24.4702 39.4575V52.09H15.3276C15.3276 50.6274 14.5353 49.033 13.3164 47.5095C12.0363 45.8337 10.2079 44.1274 8.31847 42.3907L8.20619 42.2851C4.64517 38.9365 0.989175 35.4985 0.506544 32.001C0.354269 30.7517 0.0800933 27.3696 0.0190412 23.8961C-0.0724862 19.1431 0.110366 14.1767 1.81698 14.0243C4.6199 14.0243 5.54788 25.7661 5.74802 28.2985C5.76984 28.5747 5.78301 28.7413 5.78902 28.7713C6.09855 30.8874 7.58961 34.02 10.1078 35.9062L16.7078 40.6972L18.5351 38.2574L11.9351 33.4678C9.3207 31.508 8.12912 28.1618 11.3966 28.1618Z" fill="white"/>
</mask>
<g mask="url(#mask0_12_2335)">
<path d="M25.9947 2.83516L24.539 4.20655L25.9947 5.7519L27.4505 4.20655L25.9947 2.83516ZM24.9963 28.2148L26.3079 26.7049L26.3067 26.7039L24.9963 28.2148ZM25.9932 29.0807L24.6816 30.5906L25.991 31.728L27.3023 30.5928L25.9932 29.0807ZM27.5185 15.4263V13.4263H25.5185V15.4263H27.5185ZM30.5661 15.4263V17.4263H32.566V15.4263H30.5661ZM27.5185 18.4731V20.4731H29.5185V18.4731H27.5185ZM24.471 18.4731H22.471V20.4731H24.471V18.4731ZM24.471 15.4263H26.471V13.4263H24.471V15.4263ZM21.4234 15.4263H19.4234V17.4263H21.4234V15.4263ZM21.4234 12.3794V10.3794H19.4234V12.3794H21.4234ZM24.471 12.3794V14.3794H26.471V12.3794H24.471ZM24.471 9.33252V7.33252H22.471V9.33252H24.471ZM27.5185 9.33252H29.5185V7.33252H27.5185V9.33252ZM27.5185 12.3794H25.5185V14.3794H27.5185V12.3794ZM30.5661 12.3794H32.566V10.3794H30.5661V12.3794ZM50.1717 14.0246L50.3496 12.0326L50.2608 12.0246H50.1717V14.0246ZM46.1997 28.7716L44.2388 28.3783L44.2284 28.43L44.2208 28.4821L46.1997 28.7716ZM41.8811 35.9065L43.056 37.525L43.0681 37.5162L43.0801 37.5072L41.8811 35.9065ZM35.281 40.6975L33.6802 41.8964L34.8614 43.4735L36.4559 42.316L35.281 40.6975ZM33.4537 38.2577L32.2791 36.639L30.6358 37.8315L31.8529 39.4566L33.4537 38.2577ZM40.0538 33.4681L41.2285 35.0868L41.241 35.0777L41.2534 35.0684L40.0538 33.4681ZM27.5185 52.0903H25.5185V54.0903H27.5185V52.0903ZM36.661 52.0903V54.0903H38.661V52.0903H36.661ZM38.6722 47.5098L40.2339 48.7592L40.2479 48.7417L40.2616 48.7238L38.6722 47.5098ZM43.6702 42.391L45.0237 43.8635L45.032 43.8558L45.0403 43.848L43.6702 42.391ZM43.7834 42.2846L45.1535 43.7415L45.1759 43.7205L45.1976 43.6988L43.7834 42.2846ZM43.7834 42.2846L42.4133 40.8276L42.3909 40.8486L42.3692 40.8703L43.7834 42.2846ZM51.4821 32.0013L53.4634 32.2747L53.4655 32.2591L53.4674 32.2434L51.4821 32.0013ZM21.0573 32.6106L22.2613 31.0136L22.2265 30.9874L22.1907 30.9628L21.0573 32.6106ZM24.4703 52.0903V54.0903H26.4703V52.0903H24.4703ZM15.3277 52.0903H13.3277V54.0903H15.3277V52.0903ZM13.3165 47.5098L11.7271 48.7238L11.7407 48.7417L11.7548 48.7592L13.3165 47.5098ZM8.31855 42.391L6.94842 43.848L6.95673 43.8558L6.96513 43.8635L8.31855 42.391ZM0.506621 32.0013L-1.47868 32.2433L-1.47677 32.259L-1.4746 32.2747L0.506621 32.0013ZM0.0191183 23.8964L2.01882 23.8613L2.01875 23.8579L0.0191183 23.8964ZM1.81706 14.0246V12.0246H1.72797L1.63922 12.0326L1.81706 14.0246ZM5.7891 28.7716L7.76804 28.4821L7.76044 28.4302L7.75013 28.3787L5.7891 28.7716ZM10.1079 35.9065L8.90899 37.5073L8.92095 37.5162L8.93305 37.525L10.1079 35.9065ZM16.7079 40.6975L15.533 42.316L17.1276 43.4736L18.3087 41.8964L16.7079 40.6975ZM18.5352 38.2577L20.136 39.4566L21.3531 37.8315L19.7099 36.639L18.5352 38.2577ZM11.9352 33.4681L10.7357 35.0684L10.748 35.0777L10.7606 35.0868L11.9352 33.4681ZM32.0898 2.09033C36.8419 2.09033 40.7562 6.05667 40.7562 10.856H44.7562C44.7562 3.89613 39.0993 -1.90967 32.0898 -1.90967V2.09033ZM27.4505 4.20655C28.7696 2.80632 30.3981 2.09033 32.0898 2.09033V-1.90967C29.1982 -1.90967 26.5442 -0.66489 24.539 1.46376L27.4505 4.20655ZM19.8997 2.09033C21.5913 2.09033 23.2199 2.80633 24.539 4.20655L27.4505 1.46376C25.4452 -0.664903 22.7911 -1.90967 19.8997 -1.90967V2.09033ZM11.2334 10.856C11.2334 6.05666 15.1476 2.09033 19.8997 2.09033V-1.90967C12.8901 -1.90967 7.23338 3.89614 7.23338 10.856H11.2334ZM19.7488 21.7213C14.524 18.0455 11.2334 15.5642 11.2334 10.856H7.23338C7.23338 17.9732 12.6211 21.5975 17.4472 24.9928L19.7488 21.7213ZM19.7511 21.723L19.7488 21.7213L17.4472 24.9928L17.45 24.9948L19.7511 21.723ZM26.3067 26.7039C24.0409 24.7388 21.817 23.1759 19.7511 21.723L17.45 24.9948C19.5298 26.4575 21.5947 27.912 23.6859 29.7257L26.3067 26.7039ZM27.3048 27.5708L26.3079 26.7049L23.6847 29.7247L24.6816 30.5906L27.3048 27.5708ZM25.6832 26.7037L24.6841 27.5687L27.3023 30.5928L28.3008 29.7283L25.6832 26.7037ZM32.6851 21.3295C30.6269 22.7958 28.2193 24.5098 25.6832 26.7037L28.3008 29.7283C30.677 27.6727 32.9414 26.0582 35.006 24.5873L32.6851 21.3295ZM32.7024 21.3172L32.6851 21.3295L35.006 24.5873L35.0225 24.5756L32.7024 21.3172ZM40.7562 10.856C40.7562 15.4308 37.8427 17.6588 32.7024 21.3172L35.0225 24.5756C39.8194 21.1617 44.7562 17.802 44.7562 10.856H40.7562ZM27.5185 17.4263H30.5661V13.4263H27.5185V17.4263ZM29.5185 18.4731V15.4263H25.5185V18.4731H29.5185ZM24.471 20.4731H27.5185V16.4731H24.471V20.4731ZM22.471 15.4263V18.4731H26.471V15.4263H22.471ZM21.4234 17.4263H24.471V13.4263H21.4234V17.4263ZM19.4234 12.3794V15.4263H23.4234V12.3794H19.4234ZM24.471 10.3794H21.4234V14.3794H24.471V10.3794ZM22.471 9.33252V12.3794H26.471V9.33252H22.471ZM27.5185 7.33252H24.471V11.3325H27.5185V7.33252ZM29.5185 12.3794V9.33252H25.5185V12.3794H29.5185ZM30.5661 10.3794H27.5185V14.3794H30.5661V10.3794ZM32.566 15.4263V12.3794H28.5661V15.4263H32.566ZM48.2346 28.4559C48.335 27.1846 48.6108 23.7137 49.1963 20.5787C49.4923 18.994 49.846 17.6179 50.2441 16.6805C50.446 16.2052 50.6092 15.9649 50.6915 15.8735C50.7664 15.7905 50.5893 16.0246 50.1717 16.0246V12.0246C49.0535 12.0246 48.2343 12.6256 47.7212 13.1946C47.2156 13.7552 46.8448 14.4518 46.5624 15.1168C45.992 16.4599 45.5757 18.1771 45.2643 19.8442C44.6352 23.2127 44.3468 26.8786 44.247 28.1407L48.2346 28.4559ZM48.1607 29.1648C48.1923 29.0069 48.2067 28.8016 48.2072 28.7962C48.2145 28.7092 48.2238 28.5916 48.2346 28.4559L44.247 28.1407C44.2359 28.2815 44.2276 28.3855 44.2214 28.4585C44.2183 28.4956 44.2164 28.5157 44.2156 28.5244C44.2151 28.529 44.2157 28.5229 44.2172 28.5102C44.218 28.5038 44.2197 28.4906 44.2222 28.4731C44.2244 28.4588 44.2297 28.4237 44.2388 28.3783L48.1607 29.1648ZM43.0801 37.5072C46.07 35.2677 47.8019 31.6367 48.1787 29.061L44.2208 28.4821C43.9785 30.1387 42.7285 32.7729 40.6821 34.3058L43.0801 37.5072ZM36.4559 42.316L43.056 37.525L40.7062 34.288L34.1061 39.079L36.4559 42.316ZM31.8529 39.4566L33.6802 41.8964L36.8818 39.4986L35.0546 37.0588L31.8529 39.4566ZM38.8792 31.8494L32.2791 36.639L34.6284 39.8764L41.2285 35.0868L38.8792 31.8494ZM40.5923 30.1621C41.12 30.1621 40.9876 30.3002 40.7614 30.0464C40.5084 29.7626 40.6015 29.5188 40.5676 29.6881C40.5331 29.8606 40.4012 30.1981 40.0826 30.6364C39.7758 31.0585 39.3537 31.4934 38.8543 31.8678L41.2534 35.0684C42.7908 33.916 44.1435 32.2054 44.49 30.4724C44.6724 29.5601 44.6141 28.3572 43.7473 27.3848C42.9072 26.4423 41.6984 26.1621 40.5923 26.1621V30.1621ZM31.8501 34.4334C32.5242 33.8748 34.171 32.7656 36.0224 31.7952C36.9369 31.3159 37.857 30.894 38.692 30.5963C39.557 30.2879 40.1962 30.1621 40.5923 30.1621V26.1621C39.5252 26.1621 38.3832 26.4598 37.3488 26.8285C36.2844 27.208 35.1869 27.717 34.1653 28.2524C32.1445 29.3117 30.2454 30.5682 29.2978 31.3534L31.8501 34.4334ZM29.5185 39.397C29.5185 37.4768 30.3729 35.6574 31.8501 34.4334L29.2978 31.3534C26.902 33.3386 25.5185 36.2877 25.5185 39.397H29.5185ZM29.5185 52.0903V39.397H25.5185V52.0903H29.5185ZM36.661 50.0903H27.5185V54.0903H36.661V50.0903ZM37.1105 46.2603C35.7843 47.9179 34.661 49.9546 34.661 52.0903H38.661C38.661 51.3008 39.1223 50.1486 40.2339 48.7592L37.1105 46.2603ZM42.3167 40.9186C40.4546 42.6302 38.4887 44.4552 37.0828 46.2957L40.2616 48.7238C41.4159 47.2127 43.1072 45.6252 45.0237 43.8635L42.3167 40.9186ZM42.4133 40.8276L42.3 40.9341L45.0403 43.848L45.1535 43.7415L42.4133 40.8276ZM49.5009 31.7279C49.3363 32.9207 48.5883 34.3018 47.2462 35.9236C45.9218 37.5241 44.2159 39.1324 42.4133 40.8276L45.1535 43.7415C46.9117 42.0882 48.8138 40.3035 50.3279 38.4738C51.8243 36.6654 53.1453 34.5792 53.4634 32.2747L49.5009 31.7279ZM50.0001 21.9328C50.0119 25.4938 49.7746 29.4814 49.4968 31.7592L53.4674 32.2434C53.7687 29.7729 54.0124 25.6165 54 21.9196L50.0001 21.9328ZM49.9939 16.0167C49.4166 15.9652 49.2413 15.5593 49.3291 15.7168C49.4134 15.8681 49.546 16.2238 49.6667 16.8686C49.9029 18.1307 49.9936 19.9206 50.0001 21.9328L54 21.9196C53.9934 19.8678 53.9054 17.7727 53.5984 16.1327C53.4475 15.3266 53.2174 14.4771 52.8231 13.7695C52.4322 13.0681 51.6623 12.1498 50.3496 12.0326L49.9939 16.0167ZM22.1907 30.9628C19.9858 29.4462 17.9936 28.2674 16.2397 27.4609C14.5192 26.6698 12.8699 26.1621 11.3967 26.1621V30.1621C12.0263 30.1621 13.0587 30.4009 14.5686 31.0952C16.045 31.774 17.8317 32.8194 19.9239 34.2585L22.1907 30.9628ZM26.4703 39.4579C26.4705 36.1386 24.912 33.0118 22.2613 31.0136L19.8534 34.2077C21.5015 35.4501 22.4704 37.3941 22.4703 39.4577L26.4703 39.4579ZM26.4703 52.0903V39.4579L22.4703 39.4577V52.0903H26.4703ZM15.3277 54.0903H24.4703V50.0903H15.3277V54.0903ZM11.7548 48.7592C12.8663 50.1486 13.3277 51.3008 13.3277 52.0903H17.3277C17.3277 49.9546 16.2044 47.9179 14.8782 46.2603L11.7548 48.7592ZM6.96513 43.8635C8.88168 45.6251 10.5728 47.2127 11.7271 48.7238L14.9059 46.2957C13.5 44.4552 11.5343 42.6303 9.67196 40.9185L6.96513 43.8635ZM6.83614 43.7424L6.94842 43.848L9.68867 40.9341L9.57639 40.8285L6.83614 43.7424ZM-1.4746 32.2747C-1.15658 34.5793 0.1646 36.6658 1.66123 38.4743C3.17556 40.3042 5.07785 42.089 6.83614 43.7424L9.57639 40.8285C7.77366 39.1332 6.06745 37.5247 4.74287 35.9241C3.40059 34.3021 2.65246 32.9208 2.48785 31.7279L-1.4746 32.2747ZM-1.98057 23.9316C-1.91846 27.4654 -1.64033 30.9171 -1.47868 32.2433L2.49193 31.7593C2.34903 30.5869 2.07881 27.2745 2.01882 23.8613L-1.98057 23.9316ZM1.63922 12.0326C0.110948 12.169 -0.667984 13.3683 -1.01675 14.1338C-1.39489 14.9639 -1.60618 15.9785 -1.73863 16.9706C-2.00805 18.9889 -2.02641 21.5513 -1.98051 23.935L2.01875 23.8579C1.97312 21.4886 2.00043 19.1912 2.2262 17.4999C2.34136 16.6373 2.49005 16.0847 2.62332 15.7921C2.78596 15.4351 2.66987 15.9565 1.99491 16.0167L1.63922 12.0326ZM7.74188 28.1412C7.64217 26.8796 7.3538 23.2136 6.72463 19.8449C6.41324 18.1776 5.99692 16.4603 5.4265 15.1171C5.14408 14.452 4.77335 13.7553 4.26773 13.1947C3.75462 12.6257 2.93533 12.0246 1.81706 12.0246V16.0246C1.39952 16.0246 1.22238 15.7905 1.29729 15.8736C1.3797 15.9649 1.54289 16.2053 1.74475 16.6806C2.1429 17.6182 2.49663 18.9945 2.79262 20.5793C3.37819 23.7145 3.65388 27.1856 3.75432 28.4564L7.74188 28.1412ZM7.75013 28.3787C7.7592 28.424 7.76449 28.459 7.7666 28.4733C7.76916 28.4908 7.77082 28.5039 7.77162 28.5104C7.77316 28.523 7.77373 28.5292 7.77326 28.5245C7.7724 28.5158 7.77053 28.4957 7.76739 28.4587C7.76122 28.3858 7.753 28.2819 7.74188 28.1412L3.75432 28.4564C3.76503 28.5919 3.77431 28.7094 3.78167 28.7963C3.78213 28.8018 3.79647 29.0068 3.82806 29.1644L7.75013 28.3787ZM11.3069 34.3057C9.2604 32.7729 8.01035 30.1387 7.76804 28.4821L3.81015 29.061C4.18691 31.6367 5.91898 35.2678 8.90899 37.5073L11.3069 34.3057ZM17.8828 39.079L11.2828 34.288L8.93305 37.525L15.533 42.316L17.8828 39.079ZM16.9344 37.0588L15.1071 39.4986L18.3087 41.8964L20.136 39.4566L16.9344 37.0588ZM10.7606 35.0868L17.3605 39.8764L19.7099 36.639L13.1099 31.8494L10.7606 35.0868ZM11.3967 26.1621C10.2907 26.1621 9.08189 26.4423 8.24179 27.3848C7.37493 28.3572 7.31665 29.5601 7.49907 30.4724C7.8456 32.2054 9.19832 33.916 10.7357 35.0684L13.1348 31.8678C12.6353 31.4934 12.2132 31.0585 11.9064 30.6364C11.5879 30.1981 11.4559 29.8606 11.4214 29.6881C11.3876 29.5188 11.4806 29.7626 11.2277 30.0464C11.0014 30.3002 10.869 30.1621 11.3967 30.1621V26.1621Z" fill="#9746DC"/>
</g>
</svg>
